<?xml version="1.0" encoding="UTF-8"?>
<svg xmlns="http://www.w3.org/2000/svg" xmlns:xlink="http://www.w3.org/1999/xlink" width="663pt" height="1129pt" viewBox="0 0 663 1129" version="1.1">
<defs>
<filter id="alpha" filterUnits="objectBoundingBox" x="0%" y="0%" width="100%" height="100%">
  <feColorMatrix type="matrix" in="SourceGraphic" values="0 0 0 0 1 0 0 0 0 1 0 0 0 0 1 0 0 0 1 0"/>
</filter>
<mask id="mask0">
  <g filter="url(#alpha)">
<rect x="0" y="0" width="663" height="1129" style="fill:rgb(0%,0%,0%);fill-opacity:0.2;stroke:none;"/>
  </g>
</mask>
<clipPath id="clip1">
  <rect x="0" y="0" width="1129" height="663"/>
</clipPath>
<g id="surface487" clip-path="url(#clip1)">
<path style=" stroke:none;fill-rule:nonzero;fill:rgb(0%,0%,0%);fill-opacity:1;" d="M 1018 627 C 1018 639.148438 812.050781 649 558 649 C 303.949219 649 98 639.148438 98 627 C 98 614.851562 303.949219 605 558 605 C 812.050781 605 1018 614.851562 1018 627 Z M 1018 627 "/>
</g>
<mask id="mask1">
  <g filter="url(#alpha)">
<rect x="0" y="0" width="663" height="1129" style="fill:rgb(0%,0%,0%);fill-opacity:0.2;stroke:none;"/>
  </g>
</mask>
<clipPath id="clip2">
  <rect x="0" y="0" width="1129" height="663"/>
</clipPath>
<g id="surface494" clip-path="url(#clip2)">
<path style=" stroke:none;fill-rule:nonzero;fill:rgb(0%,0%,0%);fill-opacity:1;" d="M 949.328125 117.5 L 152.671875 117.5 C 140.703125 117.5 131 127.203125 131 139.171875 L 131 177.5 L 971 177.5 L 971 139.171875 C 971 127.203125 961.296875 117.5 949.328125 117.5 Z M 949.328125 117.5 "/>
</g>
<mask id="mask2">
  <g filter="url(#alpha)">
<rect x="0" y="0" width="663" height="1129" style="fill:rgb(0%,0%,0%);fill-opacity:0.1;stroke:none;"/>
  </g>
</mask>
<clipPath id="clip3">
  <rect x="0" y="0" width="1129" height="663"/>
</clipPath>
<g id="surface513" clip-path="url(#clip3)">
<path style=" stroke:none;fill-rule:nonzero;fill:rgb(0%,0%,0%);fill-opacity:1;" d="M 946.1875 277.359375 C 946.15625 297.863281 953.050781 317.777344 965.75 333.875 C 936.277344 371.347656 940.550781 425.179688 975.574219 457.527344 C 1010.59375 489.875 1064.59375 489.875 1099.617188 457.527344 C 1134.636719 425.179688 1138.914062 371.347656 1109.4375 333.875 C 1121.691406 318.320312 946.1875 267.101562 946.1875 277.359375 Z M 946.1875 277.359375 "/>
</g>
</defs>
<g id="surface477">
<path style=" stroke:none;fill-rule:nonzero;fill:rgb(94.901961%,94.901961%,94.901961%);fill-opacity:1;" d="M 642 321 C 642 498.285156 498.285156 642 321 642 C 143.714844 642 0 498.285156 0 321 C 0 143.714844 143.714844 0 321 0 C 498.285156 0 642 143.714844 642 321 Z M 642 321 "/>
<path style=" stroke:none;fill-rule:nonzero;fill:rgb(24.705882%,23.921569%,33.725491%);fill-opacity:1;" d="M 1073 635.5 C 1073 650.6875 842.875 663 559 663 C 275.125 663 45 650.6875 45 635.5 C 45 620.3125 275.125 608 559 608 C 842.875 608 1073 620.3125 1073 635.5 Z M 1073 635.5 "/>
<use xlink:href="#surface487" mask="url(#mask0)"/>
<path style=" stroke:none;fill-rule:nonzero;fill:rgb(24.705882%,23.921569%,33.725491%);fill-opacity:1;" d="M 131 152.5 L 971 152.5 L 971 202.5 L 131 202.5 Z M 131 152.5 "/>
<path style=" stroke:none;fill-rule:nonzero;fill:rgb(24.705882%,23.921569%,33.725491%);fill-opacity:1;" d="M 131 608.828125 C 131 620.796875 140.703125 630.5 152.671875 630.5 L 949.328125 630.5 C 961.296875 630.5 971 620.796875 971 608.828125 L 971 177.5 L 131 177.5 Z M 131 608.828125 "/>
<path style=" stroke:none;fill-rule:nonzero;fill:rgb(24.705882%,23.921569%,33.725491%);fill-opacity:1;" d="M 949.328125 117.5 L 152.671875 117.5 C 140.703125 117.5 131 127.203125 131 139.171875 L 131 177.5 L 971 177.5 L 971 139.171875 C 971 127.203125 961.296875 117.5 949.328125 117.5 Z M 949.328125 117.5 "/>
<use xlink:href="#surface494" mask="url(#mask1)"/>
<path style=" stroke:none;fill-rule:nonzero;fill:rgb(24.705882%,23.921569%,33.725491%);fill-opacity:1;" d="M 194 147.5 C 194 154.679688 188.179688 160.5 181 160.5 C 173.820312 160.5 168 154.679688 168 147.5 C 168 140.320312 173.820312 134.5 181 134.5 C 188.179688 134.5 194 140.320312 194 147.5 Z M 194 147.5 "/>
<path style=" stroke:none;fill-rule:nonzero;fill:rgb(24.705882%,23.921569%,33.725491%);fill-opacity:1;" d="M 230 147.5 C 230 154.679688 224.179688 160.5 217 160.5 C 209.820312 160.5 204 154.679688 204 147.5 C 204 140.320312 209.820312 134.5 217 134.5 C 224.179688 134.5 230 140.320312 230 147.5 Z M 230 147.5 "/>
<path style=" stroke:none;fill-rule:nonzero;fill:rgb(24.705882%,23.921569%,33.725491%);fill-opacity:1;" d="M 266 147.5 C 266 154.679688 260.179688 160.5 253 160.5 C 245.820312 160.5 240 154.679688 240 147.5 C 240 140.320312 245.820312 134.5 253 134.5 C 260.179688 134.5 266 140.320312 266 147.5 Z M 266 147.5 "/>
<path style=" stroke:none;fill-rule:nonzero;fill:rgb(37.64706%,37.64706%,37.64706%);fill-opacity:1;" d="M 173.335938 213.5 L 499.664062 213.5 C 502.613281 213.5 505 215.886719 505 218.835938 L 505 594.164062 C 505 597.113281 502.613281 599.5 499.664062 599.5 L 173.335938 599.5 C 170.386719 599.5 168 597.113281 168 594.164062 L 168 218.835938 C 168 215.886719 170.386719 213.5 173.335938 213.5 Z M 173.335938 213.5 "/>
<path style=" stroke:none;fill-rule:nonzero;fill:rgb(18.039216%,52.156866%,33.333334%);fill-opacity:1;" d="M 608.476562 272.5 L 881.523438 272.5 C 884.546875 272.5 887 274.953125 887 277.976562 L 887 289.023438 C 887 292.046875 884.546875 294.5 881.523438 294.5 L 608.476562 294.5 C 605.453125 294.5 603 292.046875 603 289.023438 L 603 277.976562 C 603 274.953125 605.453125 272.5 608.476562 272.5 Z M 608.476562 272.5 "/>
<path style=" stroke:none;fill-rule:nonzero;fill:rgb(18.039216%,52.156866%,33.333334%);fill-opacity:1;" d="M 542.476562 352.5 L 947.523438 352.5 C 950.546875 352.5 953 354.953125 953 357.976562 L 953 362.023438 C 953 365.046875 950.546875 367.5 947.523438 367.5 L 542.476562 367.5 C 539.453125 367.5 537 365.046875 537 362.023438 L 537 357.976562 C 537 354.953125 539.453125 352.5 542.476562 352.5 Z M 542.476562 352.5 "/>
<path style=" stroke:none;fill-rule:nonzero;fill:rgb(18.039216%,52.156866%,33.333334%);fill-opacity:1;" d="M 542.476562 396.5 L 947.523438 396.5 C 950.546875 396.5 953 398.953125 953 401.976562 L 953 406.023438 C 953 409.046875 950.546875 411.5 947.523438 411.5 L 542.476562 411.5 C 539.453125 411.5 537 409.046875 537 406.023438 L 537 401.976562 C 537 398.953125 539.453125 396.5 542.476562 396.5 Z M 542.476562 396.5 "/>
<path style=" stroke:none;fill-rule:nonzero;fill:rgb(18.039216%,52.156866%,33.333334%);fill-opacity:1;" d="M 542.476562 440.5 L 947.523438 440.5 C 950.546875 440.5 953 442.953125 953 445.976562 L 953 450.023438 C 953 453.046875 950.546875 455.5 947.523438 455.5 L 542.476562 455.5 C 539.453125 455.5 537 453.046875 537 450.023438 L 537 445.976562 C 537 442.953125 539.453125 440.5 542.476562 440.5 Z M 542.476562 440.5 "/>
<path style=" stroke:none;fill-rule:nonzero;fill:rgb(18.039216%,52.156866%,33.333334%);fill-opacity:1;" d="M 542.476562 484.5 L 947.523438 484.5 C 950.546875 484.5 953 486.953125 953 489.976562 L 953 494.023438 C 953 497.046875 950.546875 499.5 947.523438 499.5 L 542.476562 499.5 C 539.453125 499.5 537 497.046875 537 494.023438 L 537 489.976562 C 537 486.953125 539.453125 484.5 542.476562 484.5 Z M 542.476562 484.5 "/>
<use xlink:href="#surface513" mask="url(#mask2)"/>
<path style=" stroke:none;fill-rule:evenodd;fill:rgb(100%,100%,100%);fill-opacity:1;" d="M 330.121094 342.9375 L 441.59375 342.9375 L 441.59375 388.058594 L 330.121094 388.058594 Z M 330.121094 342.9375 "/>
<path style=" stroke:none;fill-rule:evenodd;fill:rgb(24.313726%,80.000001%,37.254903%);fill-opacity:1;" d="M 229.261719 490.242188 C 219.785156 490.238281 211.03125 485.179688 206.300781 476.96875 C 201.539062 485.175781 201.527344 495.300781 206.265625 503.519531 C 211.007812 511.734375 219.777344 516.792969 229.261719 516.78125 L 255.804688 516.78125 L 255.804688 490.242188 Z M 229.261719 490.242188 "/>
<path style=" stroke:none;fill-rule:evenodd;fill:rgb(24.313726%,80.000001%,37.254903%);fill-opacity:1;" d="M 348.671875 350.070312 L 441.59375 344.261719 L 441.59375 330.992188 C 441.59375 316.335938 429.710938 304.449219 415.050781 304.453125 L 295.617188 304.453125 L 292.296875 298.703125 C 291.613281 297.519531 290.347656 296.789062 288.980469 296.789062 C 287.613281 296.789062 286.347656 297.519531 285.664062 298.703125 L 282.34375 304.453125 L 279.027344 298.703125 C 278.34375 297.519531 277.078125 296.789062 275.710938 296.789062 C 274.339844 296.789062 273.078125 297.519531 272.390625 298.703125 L 269.074219 304.453125 L 265.757812 298.703125 C 265.074219 297.519531 263.808594 296.789062 262.4375 296.789062 C 261.070312 296.789062 259.804688 297.519531 259.121094 298.703125 L 255.804688 304.453125 C 255.773438 304.453125 255.75 304.457031 255.71875 304.457031 L 250.222656 298.960938 C 249.253906 297.992188 247.84375 297.613281 246.523438 297.96875 C 245.199219 298.324219 244.167969 299.355469 243.8125 300.675781 L 241.996094 307.449219 L 235.105469 305.601562 C 233.785156 305.25 232.375 305.625 231.40625 306.59375 C 230.4375 307.5625 230.0625 308.972656 230.414062 310.296875 L 232.261719 317.1875 L 225.488281 319 C 224.167969 319.355469 223.132812 320.386719 222.78125 321.710938 C 222.425781 323.03125 222.800781 324.441406 223.769531 325.410156 L 229.265625 330.90625 C 229.265625 330.9375 229.261719 330.964844 229.261719 330.992188 L 223.515625 334.308594 C 222.332031 334.996094 221.601562 336.257812 221.601562 337.628906 C 221.601562 338.996094 222.332031 340.261719 223.515625 340.945312 L 229.261719 344.261719 L 223.515625 347.582031 C 222.332031 348.265625 221.601562 349.53125 221.601562 350.898438 C 221.601562 352.265625 222.332031 353.53125 223.515625 354.214844 L 229.261719 357.535156 L 223.515625 360.851562 C 222.332031 361.535156 221.601562 362.800781 221.601562 364.167969 C 221.601562 365.539062 222.332031 366.804688 223.515625 367.488281 L 229.261719 370.804688 L 223.515625 374.121094 C 222.332031 374.804688 221.601562 376.070312 221.601562 377.441406 C 221.601562 378.808594 222.332031 380.074219 223.515625 380.757812 L 229.261719 384.074219 L 223.515625 387.394531 C 222.332031 388.078125 221.601562 389.34375 221.601562 390.710938 C 221.601562 392.078125 222.332031 393.34375 223.515625 394.027344 L 229.261719 397.347656 L 223.515625 400.664062 C 222.332031 401.347656 221.601562 402.613281 221.601562 403.980469 C 221.601562 405.351562 222.332031 406.613281 223.515625 407.300781 L 229.261719 410.617188 L 223.515625 413.933594 C 222.332031 414.617188 221.601562 415.882812 221.601562 417.253906 C 221.601562 418.621094 222.332031 419.886719 223.515625 420.570312 L 229.261719 423.886719 L 223.515625 427.207031 C 222.332031 427.890625 221.601562 429.152344 221.601562 430.523438 C 221.601562 431.890625 222.332031 433.15625 223.515625 433.839844 L 229.261719 437.160156 L 223.515625 440.476562 C 222.332031 441.160156 221.601562 442.425781 221.601562 443.792969 C 221.601562 445.164062 222.332031 446.425781 223.515625 447.113281 L 229.261719 450.429688 L 223.515625 453.746094 C 222.332031 454.429688 221.601562 455.695312 221.601562 457.0625 C 221.601562 458.433594 222.332031 459.699219 223.515625 460.382812 L 229.261719 463.699219 L 223.515625 467.015625 C 222.332031 467.703125 221.601562 468.964844 221.601562 470.335938 C 221.601562 471.703125 222.332031 472.96875 223.515625 473.652344 L 229.261719 476.96875 L 223.515625 480.289062 C 222.332031 480.972656 221.601562 482.238281 221.601562 483.605469 C 221.601562 484.972656 222.332031 486.238281 223.515625 486.921875 L 229.261719 490.242188 C 229.261719 504.898438 241.144531 516.78125 255.804688 516.78125 L 415.050781 516.78125 C 429.710938 516.78125 441.59375 504.898438 441.59375 490.242188 L 441.59375 384.074219 L 348.671875 378.269531 C 341.226562 377.800781 335.429688 371.628906 335.429688 364.167969 C 335.429688 356.710938 341.226562 350.535156 348.671875 350.070312 "/>
<path style=" stroke:none;fill-rule:evenodd;fill:rgb(24.313726%,80.000001%,37.254903%);fill-opacity:1;" d="M 388.511719 516.78125 L 428.324219 516.78125 L 428.324219 463.699219 L 388.511719 463.699219 Z M 388.511719 516.78125 "/>
<path style=" stroke:none;fill-rule:evenodd;fill:rgb(26.666668%,84.705883%,37.64706%);fill-opacity:1;" d="M 454.863281 483.605469 C 454.582031 483.617188 454.296875 483.644531 454.015625 483.691406 C 453.964844 483.492188 453.917969 483.292969 453.863281 483.09375 C 456.25 482.113281 457.851562 479.839844 457.96875 477.261719 C 458.082031 474.6875 456.695312 472.277344 454.40625 471.085938 C 452.121094 469.894531 449.351562 470.136719 447.304688 471.710938 C 447.160156 471.558594 447.011719 471.410156 446.859375 471.265625 C 448.394531 469.21875 448.613281 466.46875 447.421875 464.207031 C 446.230469 461.945312 443.84375 460.570312 441.285156 460.675781 C 438.730469 460.78125 436.464844 462.347656 435.464844 464.699219 C 435.269531 464.644531 435.070312 464.597656 434.875 464.546875 C 435.304688 461.949219 434.15625 459.34375 431.953125 457.902344 C 429.746094 456.464844 426.898438 456.464844 424.695312 457.902344 C 422.488281 459.34375 421.34375 461.949219 421.773438 464.546875 C 421.578125 464.597656 421.378906 464.644531 421.183594 464.699219 C 420.1875 462.335938 417.917969 460.753906 415.355469 460.644531 C 412.789062 460.535156 410.394531 461.914062 409.203125 464.1875 C 408.011719 466.460938 408.238281 469.21875 409.785156 471.265625 C 401.742188 479.109375 399.511719 491.167969 404.21875 501.367188 C 408.925781 511.570312 419.546875 517.699219 430.734375 516.671875 C 441.921875 515.644531 451.25 507.679688 454.015625 496.792969 C 456.464844 497.113281 458.890625 496.042969 460.304688 494.019531 C 461.722656 491.996094 461.890625 489.351562 460.746094 487.160156 C 459.601562 484.972656 457.335938 483.601562 454.863281 483.605469 "/>
<path style=" stroke:none;fill-rule:evenodd;fill:rgb(24.313726%,80.000001%,37.254903%);fill-opacity:1;" d="M 401.78125 437.160156 L 441.59375 437.160156 L 441.59375 410.617188 L 401.78125 410.617188 Z M 401.78125 437.160156 "/>
<path style=" stroke:none;fill-rule:evenodd;fill:rgb(26.666668%,84.705883%,37.64706%);fill-opacity:1;" d="M 454.863281 427.207031 C 456.695312 427.207031 458.183594 425.71875 458.183594 423.886719 C 458.183594 422.054688 456.695312 420.570312 454.863281 420.570312 C 454.722656 420.574219 454.582031 420.589844 454.441406 420.613281 C 454.414062 420.511719 454.390625 420.414062 454.363281 420.3125 C 455.820312 419.703125 456.644531 418.148438 456.332031 416.601562 C 456.023438 415.054688 454.664062 413.9375 453.085938 413.933594 C 452.363281 413.9375 451.65625 414.179688 451.085938 414.621094 C 451.011719 414.546875 450.9375 414.472656 450.863281 414.398438 C 451.296875 413.828125 451.53125 413.132812 451.535156 412.417969 C 451.535156 410.839844 450.421875 409.480469 448.878906 409.167969 C 447.335938 408.851562 445.78125 409.667969 445.164062 411.117188 C 439.753906 409.585938 433.964844 411.632812 430.71875 416.226562 C 427.472656 420.816406 427.472656 426.957031 430.71875 431.550781 C 433.964844 436.140625 439.753906 438.1875 445.164062 436.65625 C 445.78125 438.109375 447.335938 438.921875 448.878906 438.609375 C 450.421875 438.292969 451.535156 436.933594 451.535156 435.359375 C 451.53125 434.640625 451.296875 433.945312 450.863281 433.375 C 450.9375 433.304688 451.011719 433.230469 451.085938 433.152344 C 451.65625 433.597656 452.363281 433.839844 453.085938 433.839844 C 454.667969 433.839844 456.027344 432.726562 456.339844 431.175781 C 456.648438 429.625 455.824219 428.070312 454.363281 427.460938 C 454.390625 427.363281 454.414062 427.261719 454.441406 427.164062 C 454.582031 427.1875 454.722656 427.199219 454.863281 427.207031 "/>
<path style=" stroke:none;fill-rule:evenodd;fill:rgb(0%,0%,0%);fill-opacity:1;" d="M 282.34375 347.582031 C 280.511719 347.582031 279.027344 346.09375 279.027344 344.261719 C 279.027344 338.765625 274.570312 334.308594 269.074219 334.308594 C 263.578125 334.308594 259.121094 338.765625 259.121094 344.261719 C 259.125 345.449219 258.492188 346.546875 257.464844 347.140625 C 256.4375 347.734375 255.171875 347.734375 254.144531 347.140625 C 253.117188 346.546875 252.484375 345.449219 252.484375 344.261719 C 252.484375 335.101562 259.914062 327.675781 269.074219 327.675781 C 278.234375 327.675781 285.664062 335.101562 285.664062 344.261719 C 285.664062 346.09375 284.175781 347.582031 282.34375 347.582031 "/>
<path style=" stroke:none;fill-rule:evenodd;fill:rgb(100%,100%,31.37255%);fill-opacity:1;" d="M 335.429688 516.78125 L 415.050781 516.78125 C 429.710938 516.78125 441.59375 504.898438 441.59375 490.242188 L 441.59375 397.347656 L 361.96875 397.347656 C 347.3125 397.347656 335.429688 409.230469 335.429688 423.886719 Z M 335.429688 516.78125 "/>
<path style=" stroke:none;fill-rule:evenodd;fill:rgb(0%,0%,0%);fill-opacity:1;" d="M 421.714844 438.484375 L 355.308594 438.484375 C 354.574219 438.484375 353.980469 437.890625 353.980469 437.160156 C 353.980469 436.425781 354.574219 435.832031 355.308594 435.832031 L 421.714844 435.832031 C 422.449219 435.832031 423.042969 436.425781 423.042969 437.160156 C 423.042969 437.890625 422.449219 438.484375 421.714844 438.484375 M 421.714844 465.027344 L 355.308594 465.027344 C 354.574219 465.027344 353.980469 464.433594 353.980469 463.699219 C 353.980469 462.96875 354.574219 462.371094 355.308594 462.371094 L 421.714844 462.371094 C 422.449219 462.371094 423.042969 462.96875 423.042969 463.699219 C 423.042969 464.433594 422.449219 465.027344 421.714844 465.027344 M 421.714844 491.566406 L 355.308594 491.566406 C 354.574219 491.566406 353.980469 490.972656 353.980469 490.242188 C 353.980469 489.507812 354.574219 488.914062 355.308594 488.914062 L 421.714844 488.914062 C 422.449219 488.914062 423.042969 489.507812 423.042969 490.242188 C 423.042969 490.972656 422.449219 491.566406 421.714844 491.566406 M 421.714844 425.460938 L 355.308594 425.460938 C 354.574219 425.460938 353.980469 424.867188 353.980469 424.132812 C 353.980469 423.402344 354.574219 422.808594 355.308594 422.808594 L 421.714844 422.808594 C 422.449219 422.808594 423.042969 423.402344 423.042969 424.132812 C 423.042969 424.867188 422.449219 425.460938 421.714844 425.460938 M 421.714844 451.757812 L 355.308594 451.757812 C 354.574219 451.757812 353.980469 451.160156 353.980469 450.429688 C 353.980469 449.695312 354.574219 449.101562 355.308594 449.101562 L 421.714844 449.101562 C 422.449219 449.101562 423.042969 449.695312 423.042969 450.429688 C 423.042969 451.160156 422.449219 451.757812 421.714844 451.757812 M 421.714844 478.296875 L 355.308594 478.296875 C 354.574219 478.296875 353.980469 477.703125 353.980469 476.96875 C 353.980469 476.238281 354.574219 475.644531 355.308594 475.644531 L 421.714844 475.644531 C 422.449219 475.644531 423.042969 476.238281 423.042969 476.96875 C 423.042969 477.703125 422.449219 478.296875 421.714844 478.296875 M 441.59375 355.691406 C 441.578125 355.691406 441.566406 355.683594 441.550781 355.683594 C 437.449219 355.824219 435.507812 359.925781 433.796875 363.542969 C 432.011719 367.328125 430.628906 369.785156 428.363281 369.710938 C 425.859375 369.621094 424.425781 366.789062 422.90625 363.792969 C 421.164062 360.351562 419.171875 356.445312 414.992188 356.59375 C 410.949219 356.730469 409.003906 360.300781 407.285156 363.449219 C 405.460938 366.804688 404.214844 368.84375 401.816406 368.75 C 399.261719 368.65625 397.902344 366.355469 396.328125 363.6875 C 394.574219 360.722656 392.550781 357.386719 388.453125 357.5 C 384.476562 357.636719 382.527344 360.664062 380.804688 363.339844 C 378.980469 366.164062 377.703125 367.886719 375.277344 367.785156 C 372.65625 367.691406 371.304688 365.78125 369.742188 363.570312 C 367.984375 361.085938 366.003906 358.269531 361.917969 358.40625 C 358.03125 358.539062 356.082031 361.023438 354.359375 363.207031 C 352.722656 365.285156 351.449219 366.925781 348.746094 366.824219 C 348.011719 366.796875 347.398438 367.371094 347.371094 368.101562 C 347.34375 368.835938 347.917969 369.453125 348.652344 369.476562 C 352.65625 369.613281 354.683594 367.089844 356.445312 364.851562 C 358.003906 362.863281 359.355469 361.152344 362.007812 361.0625 C 364.5625 360.953125 365.761719 362.542969 367.574219 365.101562 C 369.296875 367.535156 371.25 370.296875 375.179688 370.4375 C 379.296875 370.578125 381.28125 367.5 383.035156 364.777344 C 384.601562 362.34375 385.957031 360.242188 388.542969 360.152344 C 390.921875 360.0625 392.214844 361.945312 394.042969 365.039062 C 395.761719 367.953125 397.714844 371.257812 401.722656 371.402344 C 405.871094 371.546875 407.871094 367.925781 409.617188 364.71875 C 411.128906 361.949219 412.554688 359.332031 415.082031 359.246094 C 417.460938 359.1875 418.703125 361.363281 420.539062 364.992188 C 422.253906 368.378906 424.199219 372.21875 428.269531 372.363281 L 428.492188 372.367188 C 432.558594 372.367188 434.488281 368.289062 436.195312 364.679688 C 437.707031 361.480469 439.140625 358.46875 441.59375 358.34375 Z M 441.59375 355.691406 "/>
<path style=" stroke:none;fill-rule:evenodd;fill:rgb(24.313726%,80.000001%,37.254903%);fill-opacity:1;" d="M 308.886719 516.78125 L 361.96875 516.78125 L 361.96875 463.699219 L 308.886719 463.699219 Z M 308.886719 516.78125 "/>
<path style=" stroke:none;fill-rule:evenodd;fill:rgb(26.666668%,84.705883%,37.64706%);fill-opacity:1;" d="M 388.511719 483.605469 C 388.226562 483.617188 387.945312 483.644531 387.664062 483.691406 C 387.613281 483.492188 387.566406 483.292969 387.507812 483.09375 C 389.894531 482.113281 391.496094 479.839844 391.613281 477.261719 C 391.730469 474.6875 390.339844 472.277344 388.054688 471.085938 C 385.765625 469.894531 382.996094 470.136719 380.953125 471.710938 C 380.804688 471.558594 380.65625 471.410156 380.507812 471.265625 C 382.039062 469.21875 382.257812 466.46875 381.066406 464.207031 C 379.875 461.945312 377.488281 460.570312 374.933594 460.675781 C 372.378906 460.78125 370.113281 462.347656 369.109375 464.699219 C 368.914062 464.644531 368.714844 464.597656 368.519531 464.546875 C 368.949219 461.949219 367.804688 459.34375 365.597656 457.902344 C 363.394531 456.464844 360.546875 456.464844 358.339844 457.902344 C 356.136719 459.34375 354.988281 461.949219 355.417969 464.546875 C 355.222656 464.597656 355.023438 464.644531 354.828125 464.699219 C 353.835938 462.335938 351.566406 460.753906 349 460.644531 C 346.4375 460.535156 344.039062 461.914062 342.847656 464.1875 C 341.65625 466.460938 341.882812 469.21875 343.433594 471.265625 C 335.390625 479.109375 333.160156 491.167969 337.867188 501.367188 C 342.574219 511.570312 353.195312 517.699219 364.382812 516.671875 C 375.570312 515.644531 384.894531 507.679688 387.664062 496.792969 C 390.113281 497.113281 392.539062 496.042969 393.953125 494.019531 C 395.367188 491.996094 395.539062 489.351562 394.394531 487.160156 C 393.25 484.972656 390.980469 483.601562 388.511719 483.605469 "/>
<path style=" stroke:none;fill-rule:evenodd;fill:rgb(24.313726%,80.000001%,37.254903%);fill-opacity:1;" d="M 308.886719 437.160156 L 361.96875 437.160156 L 361.96875 410.617188 L 308.886719 410.617188 Z M 308.886719 437.160156 "/>
<path style=" stroke:none;fill-rule:evenodd;fill:rgb(26.666668%,84.705883%,37.64706%);fill-opacity:1;" d="M 375.242188 427.207031 C 377.074219 427.207031 378.558594 425.71875 378.558594 423.886719 C 378.558594 422.054688 377.074219 420.570312 375.242188 420.570312 C 375.097656 420.574219 374.957031 420.589844 374.816406 420.613281 C 374.789062 420.511719 374.769531 420.414062 374.738281 420.3125 C 376.195312 419.703125 377.019531 418.148438 376.710938 416.601562 C 376.398438 415.054688 375.042969 413.9375 373.460938 413.933594 C 372.738281 413.9375 372.035156 414.179688 371.460938 414.621094 C 371.386719 414.546875 371.3125 414.472656 371.238281 414.398438 C 371.671875 413.828125 371.90625 413.132812 371.910156 412.417969 C 371.910156 410.839844 370.800781 409.480469 369.253906 409.167969 C 367.710938 408.851562 366.15625 409.667969 365.539062 411.117188 C 360.128906 409.585938 354.339844 411.632812 351.09375 416.226562 C 347.847656 420.816406 347.847656 426.957031 351.09375 431.550781 C 354.339844 436.140625 360.128906 438.1875 365.539062 436.65625 C 366.15625 438.109375 367.710938 438.921875 369.253906 438.609375 C 370.800781 438.292969 371.910156 436.933594 371.910156 435.359375 C 371.90625 434.640625 371.671875 433.945312 371.238281 433.375 C 371.3125 433.304688 371.386719 433.230469 371.460938 433.152344 C 372.035156 433.597656 372.738281 433.839844 373.460938 433.839844 C 375.042969 433.839844 376.40625 432.726562 376.714844 431.175781 C 377.027344 429.625 376.199219 428.070312 374.738281 427.460938 C 374.769531 427.363281 374.789062 427.261719 374.816406 427.164062 C 374.957031 427.1875 375.097656 427.199219 375.242188 427.207031 "/>
<path style=" stroke:none;fill-rule:evenodd;fill:rgb(0%,0%,0%);fill-opacity:1;" d="M 388.511719 329.332031 C 388.292969 329.332031 388.074219 329.308594 387.859375 329.265625 C 387.648438 329.226562 387.4375 329.164062 387.238281 329.082031 C 387.039062 329 386.847656 328.894531 386.664062 328.777344 C 386.488281 328.648438 386.320312 328.511719 386.160156 328.363281 C 386.011719 328.207031 385.875 328.039062 385.75 327.859375 C 385.382812 327.316406 385.191406 326.671875 385.195312 326.015625 C 385.195312 325.796875 385.21875 325.582031 385.257812 325.367188 C 385.304688 325.152344 385.363281 324.945312 385.445312 324.742188 C 385.527344 324.542969 385.632812 324.351562 385.75 324.171875 C 385.988281 323.808594 386.300781 323.496094 386.664062 323.253906 C 386.847656 323.136719 387.039062 323.035156 387.238281 322.949219 C 387.4375 322.867188 387.648438 322.804688 387.859375 322.765625 C 388.289062 322.671875 388.734375 322.671875 389.160156 322.765625 C 389.589844 322.847656 389.996094 323.011719 390.355469 323.253906 C 390.53125 323.382812 390.699219 323.519531 390.859375 323.667969 C 391.007812 323.824219 391.144531 323.996094 391.269531 324.171875 C 391.390625 324.351562 391.492188 324.542969 391.578125 324.742188 C 391.738281 325.148438 391.824219 325.578125 391.828125 326.015625 C 391.824219 326.894531 391.476562 327.738281 390.859375 328.363281 C 390.699219 328.511719 390.53125 328.648438 390.355469 328.777344 C 389.808594 329.140625 389.167969 329.335938 388.511719 329.332031 M 415.050781 327.675781 C 414.171875 327.667969 413.332031 327.320312 412.703125 326.707031 C 412.554688 326.546875 412.417969 326.378906 412.292969 326.203125 C 411.925781 325.65625 411.730469 325.015625 411.734375 324.355469 C 411.742188 323.476562 412.085938 322.636719 412.703125 322.007812 C 412.859375 321.859375 413.03125 321.722656 413.207031 321.597656 C 413.386719 321.476562 413.578125 321.375 413.777344 321.292969 C 413.980469 321.210938 414.1875 321.148438 414.402344 321.105469 C 414.832031 321.011719 415.273438 321.011719 415.703125 321.105469 C 416.128906 321.1875 416.535156 321.355469 416.898438 321.597656 C 417.074219 321.722656 417.242188 321.859375 417.402344 322.007812 C 418.015625 322.636719 418.363281 323.476562 418.371094 324.355469 C 418.367188 324.574219 418.34375 324.792969 418.304688 325.007812 C 418.261719 325.222656 418.199219 325.429688 418.117188 325.632812 C 418.03125 325.828125 417.925781 326.019531 417.8125 326.203125 C 417.6875 326.378906 417.550781 326.546875 417.402344 326.707031 C 417.242188 326.855469 417.074219 326.992188 416.898438 327.117188 C 416.351562 327.480469 415.710938 327.675781 415.050781 327.675781 "/>
</g>
</svg>
