<?xml version="1.0" encoding="UTF-8"?>
<svg xmlns="http://www.w3.org/2000/svg" xmlns:xlink="http://www.w3.org/1999/xlink" width="687.961975pt" height="1088pt" viewBox="0 0 687.961975 1088" version="1.1">
<defs>
<filter id="alpha" filterUnits="objectBoundingBox" x="0%" y="0%" width="100%" height="100%">
  <feColorMatrix type="matrix" in="SourceGraphic" values="0 0 0 0 1 0 0 0 0 1 0 0 0 0 1 0 0 0 1 0"/>
</filter>
<mask id="mask0">
  <g filter="url(#alpha)">
<rect x="0" y="0" width="687.961975" height="1088" style="fill:rgb(0%,0%,0%);fill-opacity:0.1;stroke:none;"/>
  </g>
</mask>
<clipPath id="clip1">
  <rect x="0" y="0" width="1088" height="688"/>
</clipPath>
<g id="surface555" clip-path="url(#clip1)">
<path style=" stroke:none;fill-rule:nonzero;fill:rgb(0%,0%,0%);fill-opacity:1;" d="M 302 282.960938 L 328 225.960938 L 364 308.960938 L 333 248.960938 Z M 302 282.960938 "/>
</g>
<mask id="mask1">
  <g filter="url(#alpha)">
<rect x="0" y="0" width="687.961975" height="1088" style="fill:rgb(0%,0%,0%);fill-opacity:0.1;stroke:none;"/>
  </g>
</mask>
<clipPath id="clip2">
  <rect x="0" y="0" width="1088" height="688"/>
</clipPath>
<g id="surface562" clip-path="url(#clip2)">
<path style=" stroke:none;fill-rule:nonzero;fill:rgb(0%,0%,0%);fill-opacity:1;" d="M 554.5 647.800781 C 544.519531 647.351562 534.53125 647.128906 524.53125 647.132812 L 409.039062 391.171875 Z M 554.5 647.800781 "/>
</g>
<mask id="mask2">
  <g filter="url(#alpha)">
<rect x="0" y="0" width="687.961975" height="1088" style="fill:rgb(0%,0%,0%);fill-opacity:0.1;stroke:none;"/>
  </g>
</mask>
<clipPath id="clip3">
  <rect x="0" y="0" width="1088" height="688"/>
</clipPath>
<g id="surface566" clip-path="url(#clip3)">
<path style=" stroke:none;fill-rule:nonzero;fill:rgb(0%,0%,0%);fill-opacity:1;" d="M 464.410156 315.191406 L 493 292.960938 L 623 442.960938 L 491 314.960938 Z M 464.410156 315.191406 "/>
</g>
<mask id="mask3">
  <g filter="url(#alpha)">
<rect x="0" y="0" width="687.961975" height="1088" style="fill:rgb(0%,0%,0%);fill-opacity:0.1;stroke:none;"/>
  </g>
</mask>
<clipPath id="clip4">
  <rect x="0" y="0" width="1088" height="688"/>
</clipPath>
<g id="surface570" clip-path="url(#clip4)">
<path style=" stroke:none;fill-rule:nonzero;fill:rgb(0%,0%,0%);fill-opacity:1;" d="M 852.789062 645.03125 C 843.960938 649.714844 834.777344 653.707031 825.328125 656.972656 L 623.199219 425.230469 Z M 852.789062 645.03125 "/>
</g>
<mask id="mask4">
  <g filter="url(#alpha)">
<rect x="0" y="0" width="687.961975" height="1088" style="fill:rgb(0%,0%,0%);fill-opacity:0.1;stroke:none;"/>
  </g>
</mask>
<clipPath id="clip5">
  <rect x="0" y="0" width="1088" height="688"/>
</clipPath>
<g id="surface585" clip-path="url(#clip5)">
<path style=" stroke:none;fill-rule:nonzero;fill:rgb(0%,0%,0%);fill-opacity:1;" d="M 1088 613.960938 C 1088 630.53125 844.441406 687.960938 544 687.960938 C 243.558594 687.960938 0 630.53125 0 613.960938 C 0 597.394531 243.558594 627.960938 544 627.960938 C 844.441406 627.960938 1088 597.394531 1088 613.960938 Z M 1088 613.960938 "/>
</g>
<mask id="mask5">
  <g filter="url(#alpha)">
<rect x="0" y="0" width="687.961975" height="1088" style="fill:rgb(0%,0%,0%);fill-opacity:0.1;stroke:none;"/>
  </g>
</mask>
<clipPath id="clip6">
  <rect x="0" y="0" width="1088" height="688"/>
</clipPath>
<g id="surface592" clip-path="url(#clip6)">
<path style=" stroke:none;fill-rule:nonzero;fill:rgb(0%,0%,0%);fill-opacity:1;" d="M 550 584.640625 C 550 599.703125 543.285156 595.550781 535 595.550781 C 526.714844 595.550781 520 599.703125 520 584.640625 C 520 569.578125 535 541.003906 535 541.003906 C 535 541.003906 550 569.582031 550 584.640625 Z M 550 584.640625 "/>
</g>
<mask id="mask6">
  <g filter="url(#alpha)">
<rect x="0" y="0" width="687.961975" height="1088" style="fill:rgb(0%,0%,0%);fill-opacity:0.2;stroke:none;"/>
  </g>
</mask>
<clipPath id="clip7">
  <rect x="0" y="0" width="1088" height="688"/>
</clipPath>
<g id="surface609" clip-path="url(#clip7)">
<path style=" stroke:none;fill-rule:nonzero;fill:rgb(0%,0%,0%);fill-opacity:1;" d="M 234.714844 604.890625 C 222.285156 604.988281 205.835938 602.953125 202.527344 600.9375 C 200.003906 599.402344 199 593.890625 198.664062 591.347656 L 198.296875 591.359375 C 198.296875 591.359375 198.996094 600.238281 202.304688 602.261719 C 205.613281 604.28125 222.066406 606.3125 234.492188 606.214844 C 238.082031 606.183594 239.320312 604.90625 239.253906 603.011719 C 238.753906 604.15625 237.386719 604.867188 234.714844 604.890625 Z M 234.714844 604.890625 "/>
</g>
<mask id="mask7">
  <g filter="url(#alpha)">
<rect x="0" y="0" width="687.961975" height="1088" style="fill:rgb(0%,0%,0%);fill-opacity:0.2;stroke:none;"/>
  </g>
</mask>
<clipPath id="clip8">
  <rect x="0" y="0" width="1088" height="688"/>
</clipPath>
<g id="surface631" clip-path="url(#clip8)">
<path style=" stroke:none;fill-rule:nonzero;fill:rgb(0%,0%,0%);fill-opacity:1;" d="M 788.574219 605.644531 C 780.035156 605.714844 768.730469 604.316406 766.453125 602.929688 C 764.722656 601.871094 764.03125 598.085938 763.800781 596.339844 L 763.546875 596.347656 C 763.546875 596.347656 764.027344 602.449219 766.304688 603.835938 C 768.578125 605.222656 779.882812 606.621094 788.421875 606.550781 C 790.886719 606.53125 791.738281 605.652344 791.691406 604.351562 C 791.347656 605.140625 790.410156 605.628906 788.574219 605.644531 Z M 788.574219 605.644531 "/>
</g>
<mask id="mask8">
  <g filter="url(#alpha)">
<rect x="0" y="0" width="687.961975" height="1088" style="fill:rgb(0%,0%,0%);fill-opacity:0.2;stroke:none;"/>
  </g>
</mask>
<clipPath id="clip9">
  <rect x="0" y="0" width="1088" height="688"/>
</clipPath>
<g id="surface648" clip-path="url(#clip9)">
<path style=" stroke:none;fill-rule:nonzero;fill:rgb(0%,0%,0%);fill-opacity:1;" d="M 933.226562 628.152344 C 920.367188 629.8125 903.074219 629.761719 899.394531 628.089844 C 896.59375 626.8125 894.859375 621.230469 894.191406 618.640625 L 893.8125 618.699219 C 893.8125 618.699219 895.648438 627.808594 899.328125 629.484375 C 903.011719 631.15625 920.304688 631.207031 933.164062 629.546875 C 936.878906 629.070312 938 627.59375 937.695312 625.640625 C 937.320312 626.886719 935.992188 627.796875 933.226562 628.152344 Z M 933.226562 628.152344 "/>
</g>
<mask id="mask9">
  <g filter="url(#alpha)">
<rect x="0" y="0" width="687.961975" height="1088" style="fill:rgb(0%,0%,0%);fill-opacity:0.2;stroke:none;"/>
  </g>
</mask>
<clipPath id="clip10">
  <rect x="0" y="0" width="1088" height="688"/>
</clipPath>
<g id="surface662" clip-path="url(#clip10)">
<path style=" stroke:none;fill-rule:nonzero;fill:rgb(0%,0%,0%);fill-opacity:1;" d="M 647.523438 625.855469 C 636.671875 627.257812 622.074219 627.214844 618.96875 625.800781 C 616.601562 624.726562 615.140625 620.011719 614.578125 617.824219 L 614.257812 617.875 C 614.257812 617.875 615.804688 625.5625 618.914062 626.976562 C 622.023438 628.390625 636.613281 628.433594 647.46875 627.03125 C 650.601562 626.632812 651.550781 625.378906 651.289062 623.730469 C 650.976562 624.789062 649.855469 625.554688 647.523438 625.855469 Z M 647.523438 625.855469 "/>
</g>
<mask id="mask10">
  <g filter="url(#alpha)">
<rect x="0" y="0" width="687.961975" height="1088" style="fill:rgb(0%,0%,0%);fill-opacity:0.2;stroke:none;"/>
  </g>
</mask>
<clipPath id="clip11">
  <rect x="0" y="0" width="1088" height="688"/>
</clipPath>
<g id="surface671" clip-path="url(#clip11)">
<path style=" stroke:none;fill-rule:nonzero;fill:rgb(0%,0%,0%);fill-opacity:1;" d="M 148.285156 619.300781 C 139.835938 620.390625 128.472656 620.359375 126.054688 619.257812 C 124.214844 618.421875 123.074219 614.753906 122.636719 613.050781 L 122.390625 613.089844 C 122.390625 613.089844 123.589844 619.074219 126.011719 620.175781 C 128.4375 621.277344 139.792969 621.308594 148.242188 620.21875 C 150.683594 619.902344 151.421875 618.933594 151.21875 617.652344 C 150.972656 618.46875 150.101562 619.066406 148.285156 619.300781 Z M 148.285156 619.300781 "/>
</g>
<mask id="mask11">
  <g filter="url(#alpha)">
<rect x="0" y="0" width="687.961975" height="1088" style="fill:rgb(0%,0%,0%);fill-opacity:0.1;stroke:none;"/>
  </g>
</mask>
<clipPath id="clip12">
  <rect x="0" y="0" width="1088" height="688"/>
</clipPath>
<g id="surface679" clip-path="url(#clip12)">
<path style=" stroke:none;fill-rule:nonzero;fill:rgb(0%,0%,0%);fill-opacity:1;" d="M 383.699219 601.316406 C 383.699219 631.539062 341.574219 622.191406 290 622.191406 C 238.425781 622.191406 196.925781 631.539062 196.925781 601.316406 C 196.925781 571.097656 239.042969 564.523438 290.621094 564.523438 C 342.195312 564.523438 383.699219 571.097656 383.699219 601.316406 Z M 383.699219 601.316406 "/>
</g>
<mask id="mask12">
  <g filter="url(#alpha)">
<rect x="0" y="0" width="687.961975" height="1088" style="fill:rgb(0%,0%,0%);fill-opacity:0.136;stroke:none;"/>
  </g>
</mask>
<clipPath id="clip13">
  <rect x="0" y="0" width="1088" height="688"/>
</clipPath>
<g id="surface910" clip-path="url(#clip13)">
<path style=" stroke:none;fill-rule:nonzero;fill:rgb(84.705883%,84.705883%,84.705883%);fill-opacity:1;" d="M 369.664062 529.082031 L 373.082031 528.164062 C 373.46875 528.0625 373.863281 528.289062 373.96875 528.675781 L 374.003906 528.804688 C 374.105469 529.191406 373.878906 529.589844 373.492188 529.691406 L 370.070312 530.609375 C 369.6875 530.710938 369.289062 530.484375 369.1875 530.097656 L 369.152344 529.96875 C 369.046875 529.582031 369.277344 529.183594 369.664062 529.082031 Z M 369.664062 529.082031 "/>
</g>
<mask id="mask13">
  <g filter="url(#alpha)">
<rect x="0" y="0" width="687.961975" height="1088" style="fill:rgb(0%,0%,0%);fill-opacity:0.136;stroke:none;"/>
  </g>
</mask>
<clipPath id="clip14">
  <rect x="0" y="0" width="1088" height="688"/>
</clipPath>
<g id="surface918" clip-path="url(#clip14)">
<path style=" stroke:none;fill-rule:nonzero;fill:rgb(84.705883%,84.705883%,84.705883%);fill-opacity:1;" d="M 376.253906 527.3125 L 379.671875 526.398438 C 380.058594 526.292969 380.457031 526.523438 380.558594 526.910156 L 380.59375 527.039062 C 380.699219 527.425781 380.46875 527.820312 380.082031 527.925781 L 376.664062 528.839844 C 376.277344 528.945312 375.878906 528.714844 375.777344 528.332031 L 375.742188 528.199219 C 375.640625 527.8125 375.867188 527.417969 376.253906 527.3125 Z M 376.253906 527.3125 "/>
</g>
<mask id="mask14">
  <g filter="url(#alpha)">
<rect x="0" y="0" width="687.961975" height="1088" style="fill:rgb(0%,0%,0%);fill-opacity:0.136;stroke:none;"/>
  </g>
</mask>
<clipPath id="clip15">
  <rect x="0" y="0" width="1088" height="688"/>
</clipPath>
<g id="surface926" clip-path="url(#clip15)">
<path style=" stroke:none;fill-rule:nonzero;fill:rgb(84.705883%,84.705883%,84.705883%);fill-opacity:1;" d="M 381.324219 525.953125 L 384.746094 525.039062 C 385.128906 524.933594 385.527344 525.164062 385.628906 525.550781 L 385.664062 525.679688 C 385.769531 526.066406 385.539062 526.460938 385.152344 526.566406 L 381.734375 527.480469 C 381.347656 527.585938 380.953125 527.355469 380.847656 526.972656 L 380.8125 526.839844 C 380.710938 526.453125 380.9375 526.058594 381.324219 525.953125 Z M 381.324219 525.953125 "/>
</g>
<mask id="mask15">
  <g filter="url(#alpha)">
<rect x="0" y="0" width="687.961975" height="1088" style="fill:rgb(0%,0%,0%);fill-opacity:0.136;stroke:none;"/>
  </g>
</mask>
<clipPath id="clip16">
  <rect x="0" y="0" width="1088" height="688"/>
</clipPath>
<g id="surface938" clip-path="url(#clip16)">
<path style=" stroke:none;fill-rule:nonzero;fill:rgb(84.705883%,84.705883%,84.705883%);fill-opacity:1;" d="M 386.394531 524.59375 L 389.8125 523.679688 C 390.199219 523.574219 390.597656 523.804688 390.699219 524.191406 L 390.734375 524.320312 C 390.839844 524.707031 390.609375 525.101562 390.222656 525.207031 L 386.804688 526.121094 C 386.417969 526.226562 386.023438 525.996094 385.917969 525.613281 L 385.882812 525.480469 C 385.78125 525.09375 386.007812 524.699219 386.394531 524.59375 Z M 386.394531 524.59375 "/>
</g>
<mask id="mask16">
  <g filter="url(#alpha)">
<rect x="0" y="0" width="687.961975" height="1088" style="fill:rgb(0%,0%,0%);fill-opacity:0.136;stroke:none;"/>
  </g>
</mask>
<clipPath id="clip17">
  <rect x="0" y="0" width="1088" height="688"/>
</clipPath>
<g id="surface946" clip-path="url(#clip17)">
<path style=" stroke:none;fill-rule:nonzero;fill:rgb(84.705883%,84.705883%,84.705883%);fill-opacity:1;" d="M 391.464844 523.234375 L 394.886719 522.320312 C 395.273438 522.214844 395.667969 522.445312 395.773438 522.828125 L 395.804688 522.960938 C 395.910156 523.347656 395.679688 523.742188 395.296875 523.847656 L 391.875 524.761719 C 391.488281 524.867188 391.09375 524.636719 390.988281 524.25 L 390.953125 524.121094 C 390.851562 523.734375 391.082031 523.339844 391.464844 523.234375 Z M 391.464844 523.234375 "/>
</g>
<mask id="mask17">
  <g filter="url(#alpha)">
<rect x="0" y="0" width="687.961975" height="1088" style="fill:rgb(0%,0%,0%);fill-opacity:0.136;stroke:none;"/>
  </g>
</mask>
<clipPath id="clip18">
  <rect x="0" y="0" width="1088" height="688"/>
</clipPath>
<g id="surface955" clip-path="url(#clip18)">
<path style=" stroke:none;fill-rule:nonzero;fill:rgb(84.705883%,84.705883%,84.705883%);fill-opacity:1;" d="M 397.804688 521.535156 L 401.222656 520.621094 C 401.609375 520.515625 402.007812 520.746094 402.109375 521.128906 L 402.144531 521.261719 C 402.246094 521.648438 402.019531 522.042969 401.632812 522.148438 L 398.214844 523.0625 C 397.828125 523.167969 397.429688 522.9375 397.328125 522.550781 L 397.292969 522.421875 C 397.191406 522.035156 397.417969 521.640625 397.804688 521.535156 Z M 397.804688 521.535156 "/>
</g>
<mask id="mask18">
  <g filter="url(#alpha)">
<rect x="0" y="0" width="687.961975" height="1088" style="fill:rgb(0%,0%,0%);fill-opacity:0.136;stroke:none;"/>
  </g>
</mask>
<clipPath id="clip19">
  <rect x="0" y="0" width="1088" height="688"/>
</clipPath>
<g id="surface964" clip-path="url(#clip19)">
<path style=" stroke:none;fill-rule:nonzero;fill:rgb(84.705883%,84.705883%,84.705883%);fill-opacity:1;" d="M 402.875 520.175781 L 406.292969 519.261719 C 406.679688 519.15625 407.074219 519.386719 407.179688 519.769531 L 407.214844 519.902344 C 407.316406 520.289062 407.089844 520.683594 406.703125 520.789062 L 403.28125 521.703125 C 402.898438 521.808594 402.5 521.578125 402.398438 521.191406 L 402.363281 521.0625 C 402.257812 520.675781 402.488281 520.28125 402.875 520.175781 Z M 402.875 520.175781 "/>
</g>
<mask id="mask19">
  <g filter="url(#alpha)">
<rect x="0" y="0" width="687.961975" height="1088" style="fill:rgb(0%,0%,0%);fill-opacity:0.136;stroke:none;"/>
  </g>
</mask>
<clipPath id="clip20">
  <rect x="0" y="0" width="1088" height="688"/>
</clipPath>
<g id="surface970" clip-path="url(#clip20)">
<path style=" stroke:none;fill-rule:nonzero;fill:rgb(84.705883%,84.705883%,84.705883%);fill-opacity:1;" d="M 407.945312 518.816406 L 411.363281 517.902344 C 411.75 517.796875 412.148438 518.027344 412.25 518.410156 L 412.285156 518.542969 C 412.390625 518.929688 412.160156 519.324219 411.773438 519.429688 L 408.355469 520.34375 C 407.96875 520.449219 407.574219 520.21875 407.46875 519.832031 L 407.433594 519.703125 C 407.332031 519.316406 407.558594 518.921875 407.945312 518.816406 Z M 407.945312 518.816406 "/>
</g>
<mask id="mask20">
  <g filter="url(#alpha)">
<rect x="0" y="0" width="687.961975" height="1088" style="fill:rgb(0%,0%,0%);fill-opacity:0.136;stroke:none;"/>
  </g>
</mask>
<clipPath id="clip21">
  <rect x="0" y="0" width="1088" height="688"/>
</clipPath>
<g id="surface980" clip-path="url(#clip21)">
<path style=" stroke:none;fill-rule:nonzero;fill:rgb(84.705883%,84.705883%,84.705883%);fill-opacity:1;" d="M 413.015625 517.457031 L 416.433594 516.542969 C 416.820312 516.4375 417.214844 516.667969 417.320312 517.050781 L 417.355469 517.183594 C 417.457031 517.570312 417.230469 517.964844 416.84375 518.070312 L 413.425781 518.984375 C 413.039062 519.089844 412.640625 518.859375 412.539062 518.472656 L 412.503906 518.34375 C 412.398438 517.957031 412.628906 517.5625 413.015625 517.457031 Z M 413.015625 517.457031 "/>
</g>
<mask id="mask21">
  <g filter="url(#alpha)">
<rect x="0" y="0" width="687.961975" height="1088" style="fill:rgb(0%,0%,0%);fill-opacity:0.136;stroke:none;"/>
  </g>
</mask>
<clipPath id="clip22">
  <rect x="0" y="0" width="1088" height="688"/>
</clipPath>
<g id="surface985" clip-path="url(#clip22)">
<path style=" stroke:none;fill-rule:nonzero;fill:rgb(84.705883%,84.705883%,84.705883%);fill-opacity:1;" d="M 419.355469 515.757812 L 422.773438 514.839844 C 423.160156 514.738281 423.554688 514.96875 423.660156 515.351562 L 423.695312 515.484375 C 423.796875 515.867188 423.570312 516.265625 423.183594 516.367188 L 419.761719 517.285156 C 419.378906 517.390625 418.980469 517.160156 418.878906 516.773438 L 418.84375 516.644531 C 418.738281 516.257812 418.96875 515.863281 419.355469 515.757812 Z M 419.355469 515.757812 "/>
</g>
<mask id="mask22">
  <g filter="url(#alpha)">
<rect x="0" y="0" width="687.961975" height="1088" style="fill:rgb(0%,0%,0%);fill-opacity:0.136;stroke:none;"/>
  </g>
</mask>
<clipPath id="clip23">
  <rect x="0" y="0" width="1088" height="688"/>
</clipPath>
<g id="surface990" clip-path="url(#clip23)">
<path style=" stroke:none;fill-rule:nonzero;fill:rgb(84.705883%,84.705883%,84.705883%);fill-opacity:1;" d="M 424.421875 514.398438 L 427.84375 513.484375 C 428.230469 513.378906 428.625 513.609375 428.730469 513.992188 L 428.761719 514.125 C 428.867188 514.511719 428.636719 514.90625 428.253906 515.011719 L 424.832031 515.925781 C 424.445312 516.03125 424.050781 515.800781 423.945312 515.414062 L 423.910156 515.285156 C 423.808594 514.898438 424.039062 514.503906 424.421875 514.398438 Z M 424.421875 514.398438 "/>
</g>
<mask id="mask23">
  <g filter="url(#alpha)">
<rect x="0" y="0" width="687.961975" height="1088" style="fill:rgb(0%,0%,0%);fill-opacity:0.136;stroke:none;"/>
  </g>
</mask>
<clipPath id="clip24">
  <rect x="0" y="0" width="1088" height="688"/>
</clipPath>
<g id="surface995" clip-path="url(#clip24)">
<path style=" stroke:none;fill-rule:nonzero;fill:rgb(84.705883%,84.705883%,84.705883%);fill-opacity:1;" d="M 429.496094 513.039062 L 432.914062 512.121094 C 433.300781 512.019531 433.695312 512.25 433.800781 512.632812 L 433.835938 512.765625 C 433.9375 513.148438 433.710938 513.546875 433.324219 513.648438 L 429.902344 514.566406 C 429.519531 514.671875 429.121094 514.441406 429.019531 514.054688 L 428.984375 513.925781 C 428.878906 513.539062 429.109375 513.144531 429.496094 513.039062 Z M 429.496094 513.039062 "/>
</g>
<mask id="mask24">
  <g filter="url(#alpha)">
<rect x="0" y="0" width="687.961975" height="1088" style="fill:rgb(0%,0%,0%);fill-opacity:0.136;stroke:none;"/>
  </g>
</mask>
<clipPath id="clip25">
  <rect x="0" y="0" width="1088" height="688"/>
</clipPath>
<g id="surface999" clip-path="url(#clip25)">
<path style=" stroke:none;fill-rule:nonzero;fill:rgb(84.705883%,84.705883%,84.705883%);fill-opacity:1;" d="M 435.832031 511.339844 L 439.253906 510.421875 C 439.636719 510.320312 440.035156 510.550781 440.136719 510.933594 L 440.171875 511.066406 C 440.277344 511.449219 440.046875 511.847656 439.660156 511.949219 L 436.242188 512.867188 C 435.855469 512.972656 435.460938 512.742188 435.355469 512.355469 L 435.320312 512.226562 C 435.21875 511.839844 435.445312 511.445312 435.832031 511.339844 Z M 435.832031 511.339844 "/>
</g>
<mask id="mask25">
  <g filter="url(#alpha)">
<rect x="0" y="0" width="687.961975" height="1088" style="fill:rgb(0%,0%,0%);fill-opacity:0.136;stroke:none;"/>
  </g>
</mask>
<clipPath id="clip26">
  <rect x="0" y="0" width="1088" height="688"/>
</clipPath>
<g id="surface1004" clip-path="url(#clip26)">
<path style=" stroke:none;fill-rule:nonzero;fill:rgb(84.705883%,84.705883%,84.705883%);fill-opacity:1;" d="M 440.902344 509.980469 L 444.320312 509.0625 C 444.707031 508.960938 445.105469 509.191406 445.207031 509.574219 L 445.242188 509.707031 C 445.347656 510.089844 445.117188 510.488281 444.730469 510.589844 L 441.3125 511.507812 C 440.925781 511.613281 440.53125 511.382812 440.425781 510.996094 L 440.390625 510.867188 C 440.289062 510.480469 440.515625 510.085938 440.902344 509.980469 Z M 440.902344 509.980469 "/>
</g>
<mask id="mask26">
  <g filter="url(#alpha)">
<rect x="0" y="0" width="687.961975" height="1088" style="fill:rgb(0%,0%,0%);fill-opacity:0.136;stroke:none;"/>
  </g>
</mask>
<clipPath id="clip27">
  <rect x="0" y="0" width="1088" height="688"/>
</clipPath>
<g id="surface1008" clip-path="url(#clip27)">
<path style=" stroke:none;fill-rule:nonzero;fill:rgb(84.705883%,84.705883%,84.705883%);fill-opacity:1;" d="M 445.972656 508.621094 L 449.394531 507.703125 C 449.777344 507.601562 450.175781 507.828125 450.277344 508.214844 L 450.3125 508.347656 C 450.417969 508.730469 450.1875 509.128906 449.804688 509.230469 L 446.382812 510.148438 C 445.996094 510.253906 445.601562 510.023438 445.496094 509.636719 L 445.460938 509.507812 C 445.359375 509.121094 445.589844 508.726562 445.972656 508.621094 Z M 445.972656 508.621094 "/>
</g>
</defs>
<g id="surface548">
<path style=" stroke:none;fill-rule:nonzero;fill:rgb(24.705882%,23.921569%,33.725491%);fill-opacity:1;" d="M 961.808594 454.441406 C 956.539062 499.59375 945.589844 535.84375 930.558594 564.753906 C 910.558594 603.273438 876.351562 618.792969 845.789062 635.03125 C 836.960938 639.714844 827.777344 643.707031 818.328125 646.972656 C 762.71875 666.273438 700.480469 661.152344 651.589844 650.960938 C 617.300781 643.808594 582.492188 639.40625 547.5 637.800781 C 537.519531 637.351562 527.53125 637.128906 517.53125 637.132812 C 502.109375 637.152344 224.460938 642.421875 156.859375 505.5625 C 140.171875 471.800781 128.730469 430.5625 124.621094 380.292969 C 112.988281 238.171875 176.910156 144.832031 259.359375 83.820312 C 415.328125 -31.589844 629.121094 -26.746094 782.789062 91.703125 C 885.148438 170.601562 980.988281 290.011719 961.808594 454.441406 Z M 961.808594 454.441406 "/>
<path style=" stroke:none;fill-rule:nonzero;fill:rgb(94.901961%,94.901961%,94.901961%);fill-opacity:1;" d="M 930.558594 564.753906 C 910.558594 603.273438 883.351562 628.792969 852.789062 645.03125 C 843.960938 649.714844 834.777344 653.707031 825.328125 656.972656 C 769.71875 676.273438 707.480469 671.152344 658.589844 660.960938 C 624.300781 653.808594 589.492188 649.40625 554.5 647.800781 C 544.519531 647.351562 534.53125 647.128906 524.53125 647.132812 C 509.109375 647.152344 493.691406 647.726562 478.28125 648.851562 C 378.109375 656.210938 224.460938 642.421875 156.859375 505.5625 L 326 177.960938 L 388.949219 339.582031 L 409.039062 391.171875 L 464.410156 315.191406 L 493 275.960938 L 623.199219 425.230469 L 660 343.960938 L 914.78125 551.882812 L 928.988281 563.472656 Z M 930.558594 564.753906 "/>
<use xlink:href="#surface555" mask="url(#mask0)"/>
<use xlink:href="#surface562" mask="url(#mask1)"/>
<use xlink:href="#surface566" mask="url(#mask2)"/>
<use xlink:href="#surface570" mask="url(#mask3)"/>
<path style=" stroke:none;fill-rule:nonzero;fill:rgb(94.901961%,94.901961%,94.901961%);fill-opacity:1;" d="M 485 101.960938 C 485 103.617188 483.65625 104.960938 482 104.960938 C 480.34375 104.960938 479 103.617188 479 101.960938 C 479 100.304688 480.34375 98.960938 482 98.960938 C 483.65625 98.960938 485 100.304688 485 101.960938 Z M 485 101.960938 "/>
<path style=" stroke:none;fill-rule:nonzero;fill:rgb(94.901961%,94.901961%,94.901961%);fill-opacity:1;" d="M 402 204.960938 C 402 206.617188 400.65625 207.960938 399 207.960938 C 397.34375 207.960938 396 206.617188 396 204.960938 C 396 203.304688 397.34375 201.960938 399 201.960938 C 400.65625 201.960938 402 203.304688 402 204.960938 Z M 402 204.960938 "/>
<path style=" stroke:none;fill-rule:nonzero;fill:rgb(94.901961%,94.901961%,94.901961%);fill-opacity:1;" d="M 604 222.960938 C 604 224.066406 603.105469 224.960938 602 224.960938 C 600.894531 224.960938 600 224.066406 600 222.960938 C 600 221.859375 600.894531 220.960938 602 220.960938 C 603.105469 220.960938 604 221.859375 604 222.960938 Z M 604 222.960938 "/>
<path style=" stroke:none;fill-rule:nonzero;fill:rgb(94.901961%,94.901961%,94.901961%);fill-opacity:1;" d="M 184 267.960938 C 184 269.066406 183.105469 269.960938 182 269.960938 C 180.894531 269.960938 180 269.066406 180 267.960938 C 180 266.859375 180.894531 265.960938 182 265.960938 C 183.105469 265.960938 184 266.859375 184 267.960938 Z M 184 267.960938 "/>
<path style=" stroke:none;fill-rule:nonzero;fill:rgb(94.901961%,94.901961%,94.901961%);fill-opacity:1;" d="M 616 98.960938 C 616 100.066406 615.105469 100.960938 614 100.960938 C 612.894531 100.960938 612 100.066406 612 98.960938 C 612 97.859375 612.894531 96.960938 614 96.960938 C 615.105469 96.960938 616 97.859375 616 98.960938 Z M 616 98.960938 "/>
<path style=" stroke:none;fill-rule:nonzero;fill:rgb(94.901961%,94.901961%,94.901961%);fill-opacity:1;" d="M 306 121.222656 L 303.238281 121.222656 L 303.238281 118.460938 L 301.761719 118.460938 L 301.761719 121.222656 L 299 121.222656 L 299 122.699219 L 301.761719 122.699219 L 301.761719 125.460938 L 303.238281 125.460938 L 303.238281 122.699219 L 306 122.699219 Z M 306 121.222656 "/>
<path style=" stroke:none;fill-rule:nonzero;fill:rgb(24.705882%,23.921569%,33.725491%);fill-opacity:1;" d="M 1088 613.960938 C 1088 630.53125 844.441406 687.960938 544 687.960938 C 243.558594 687.960938 0 630.53125 0 613.960938 C 0 597.394531 243.558594 627.960938 544 627.960938 C 844.441406 627.960938 1088 597.394531 1088 613.960938 Z M 1088 613.960938 "/>
<use xlink:href="#surface585" mask="url(#mask4)"/>
<path style=" stroke:none;fill-rule:nonzero;fill:rgb(24.705882%,23.921569%,33.725491%);fill-opacity:1;" d="M 1088 613.960938 C 1088 630.53125 844.441406 643.960938 544 643.960938 C 243.558594 643.960938 0 630.53125 0 613.960938 C 0 597.394531 243.558594 583.960938 544 583.960938 C 844.441406 583.960938 1088 597.394531 1088 613.960938 Z M 1088 613.960938 "/>
<path style=" stroke:none;fill-rule:nonzero;fill:rgb(100%,39.607844%,51.764709%);fill-opacity:1;" d="M 568 571.960938 C 568 605.097656 553.226562 595.960938 535 595.960938 C 516.773438 595.960938 502 605.097656 502 571.960938 C 502 538.824219 535 475.960938 535 475.960938 C 535 475.960938 568 538.824219 568 571.960938 Z M 568 571.960938 "/>
<use xlink:href="#surface592" mask="url(#mask5)"/>
<path style=" stroke:none;fill-rule:nonzero;fill:rgb(18.431373%,18.039216%,25.490198%);fill-opacity:1;" d="M 498 604.960938 L 572 604.960938 C 576.96875 604.960938 581 608.992188 581 613.960938 C 581 618.933594 576.96875 622.960938 572 622.960938 L 498 622.960938 C 493.03125 622.960938 489 618.933594 489 613.960938 C 489 608.992188 493.03125 604.960938 498 604.960938 Z M 498 604.960938 "/>
<path style=" stroke:none;fill-rule:nonzero;fill:rgb(18.431373%,18.039216%,25.490198%);fill-opacity:1;" d="M 498 586.960938 L 572 586.960938 C 576.96875 586.960938 581 590.992188 581 595.960938 C 581 600.933594 576.96875 604.960938 572 604.960938 L 498 604.960938 C 493.03125 604.960938 489 600.933594 489 595.960938 C 489 590.992188 493.03125 586.960938 498 586.960938 Z M 498 586.960938 "/>
<path style=" stroke:none;fill-rule:nonzero;fill:rgb(24.705882%,23.921569%,33.725491%);fill-opacity:1;" d="M 137 490.527344 C 137 545.871094 171.71875 590.652344 214.625 590.652344 "/>
<path style=" stroke:none;fill-rule:nonzero;fill:rgb(42.352942%,38.82353%,100%);fill-opacity:1;" d="M 214.625 590.652344 C 214.625 534.6875 253.371094 489.402344 301.253906 489.402344 "/>
<path style=" stroke:none;fill-rule:nonzero;fill:rgb(42.352942%,38.82353%,100%);fill-opacity:1;" d="M 165.125 495.546875 C 165.125 548.113281 187.265625 590.652344 214.625 590.652344 "/>
<path style=" stroke:none;fill-rule:nonzero;fill:rgb(24.705882%,23.921569%,33.725491%);fill-opacity:1;" d="M 214.625 590.652344 C 214.625 519.144531 259.410156 461.277344 314.753906 461.277344 "/>
<path style=" stroke:none;fill-rule:nonzero;fill:rgb(65.882355%,65.882355%,65.882355%);fill-opacity:1;" d="M 198.300781 591.359375 C 198.300781 591.359375 209.308594 591.019531 212.625 588.660156 C 215.941406 586.300781 229.558594 583.476562 230.382812 587.265625 C 231.207031 591.054688 246.925781 606.109375 234.496094 606.210938 C 222.070312 606.3125 205.617188 604.273438 202.308594 602.257812 C 198.996094 600.238281 198.300781 591.359375 198.300781 591.359375 Z M 198.300781 591.359375 "/>
<use xlink:href="#surface609" mask="url(#mask6)"/>
<use xlink:href="#surface631" mask="url(#mask7)"/>
<use xlink:href="#surface648" mask="url(#mask8)"/>
<path style=" stroke:none;fill-rule:nonzero;fill:rgb(65.882355%,65.882355%,65.882355%);fill-opacity:1;" d="M 614.261719 617.882812 C 614.261719 617.882812 623.847656 616.421875 626.496094 614.007812 C 629.148438 611.589844 640.753906 607.6875 641.871094 610.910156 C 642.988281 614.136719 658.324219 625.636719 647.472656 627.035156 C 636.617188 628.4375 622.023438 628.394531 618.914062 626.980469 C 615.808594 625.566406 614.261719 617.882812 614.261719 617.882812 Z M 614.261719 617.882812 "/>
<use xlink:href="#surface662" mask="url(#mask9)"/>
<path style=" stroke:none;fill-rule:nonzero;fill:rgb(65.882355%,65.882355%,65.882355%);fill-opacity:1;" d="M 122.390625 613.089844 C 122.390625 613.089844 129.851562 611.953125 131.914062 610.074219 C 133.980469 608.195312 143.015625 605.152344 143.886719 607.664062 C 144.753906 610.175781 156.691406 619.128906 148.242188 620.21875 C 139.792969 621.308594 128.433594 621.273438 126.011719 620.175781 C 123.59375 619.074219 122.390625 613.089844 122.390625 613.089844 Z M 122.390625 613.089844 "/>
<use xlink:href="#surface671" mask="url(#mask10)"/>
<use xlink:href="#surface679" mask="url(#mask11)"/>
<path style=" stroke:none;fill-rule:nonzero;fill:rgb(24.705882%,23.921569%,33.725491%);fill-opacity:1;" d="M 383.699219 593.882812 C 383.699219 624.101562 341.574219 614.753906 290 614.753906 C 238.425781 614.753906 196.925781 624.101562 196.925781 593.882812 C 196.925781 563.660156 239.039062 557.082031 290.617188 557.082031 C 342.191406 557.082031 383.699219 563.65625 383.699219 593.882812 Z M 383.699219 593.882812 "/>
<path style=" stroke:none;fill-rule:evenodd;fill:rgb(100%,100%,100%);fill-opacity:1;" d="M 360.175781 475.730469 L 451.964844 475.730469 L 451.964844 512.886719 L 360.175781 512.886719 Z M 360.175781 475.730469 "/>
<path style=" stroke:none;fill-rule:evenodd;fill:rgb(24.313726%,80.000001%,37.254903%);fill-opacity:1;" d="M 277.125 597.027344 C 269.324219 597.023438 262.113281 592.859375 258.21875 586.097656 C 254.296875 592.855469 254.289062 601.191406 258.191406 607.957031 C 262.09375 614.726562 269.316406 618.890625 277.125 618.882812 L 298.980469 618.882812 L 298.980469 597.027344 Z M 277.125 597.027344 "/>
<path style=" stroke:none;fill-rule:evenodd;fill:rgb(24.313726%,80.000001%,37.254903%);fill-opacity:1;" d="M 375.449219 481.605469 L 451.964844 476.824219 L 451.964844 465.898438 C 451.964844 453.828125 442.179688 444.042969 430.109375 444.042969 L 331.761719 444.042969 L 329.03125 439.308594 C 328.46875 438.332031 327.425781 437.730469 326.300781 437.730469 C 325.171875 437.730469 324.128906 438.332031 323.566406 439.308594 L 320.835938 444.039062 L 318.101562 439.308594 C 317.539062 438.332031 316.5 437.730469 315.371094 437.730469 C 314.242188 437.730469 313.203125 438.332031 312.640625 439.308594 L 309.90625 444.039062 L 307.175781 439.308594 C 306.613281 438.332031 305.570312 437.730469 304.445312 437.730469 C 303.316406 437.730469 302.273438 438.332031 301.710938 439.308594 L 298.980469 444.042969 C 298.957031 444.042969 298.933594 444.042969 298.910156 444.042969 L 294.382812 439.515625 C 293.585938 438.71875 292.425781 438.410156 291.335938 438.699219 C 290.25 438.992188 289.398438 439.84375 289.105469 440.929688 L 287.605469 446.507812 L 281.933594 444.988281 C 280.84375 444.695312 279.683594 445.007812 278.886719 445.804688 C 278.089844 446.601562 277.777344 447.761719 278.070312 448.851562 L 279.589844 454.53125 L 274.015625 456.023438 C 272.925781 456.316406 272.074219 457.164062 271.785156 458.253906 C 271.492188 459.34375 271.800781 460.503906 272.597656 461.300781 L 277.125 465.828125 C 277.125 465.851562 277.125 465.875 277.125 465.898438 L 272.390625 468.628906 C 271.414062 469.191406 270.8125 470.234375 270.8125 471.359375 C 270.8125 472.488281 271.414062 473.53125 272.390625 474.09375 L 277.121094 476.824219 L 272.390625 479.558594 C 271.414062 480.121094 270.8125 481.160156 270.8125 482.289062 C 270.8125 483.417969 271.414062 484.457031 272.390625 485.019531 L 277.121094 487.753906 L 272.390625 490.484375 C 271.414062 491.046875 270.8125 492.089844 270.8125 493.214844 C 270.8125 494.34375 271.414062 495.382812 272.390625 495.949219 L 277.121094 498.679688 L 272.390625 501.40625 C 271.414062 501.96875 270.8125 503.011719 270.8125 504.140625 C 270.8125 505.265625 271.414062 506.308594 272.390625 506.871094 L 277.125 509.605469 L 272.390625 512.339844 C 271.414062 512.902344 270.8125 513.945312 270.8125 515.070312 C 270.8125 516.199219 271.414062 517.238281 272.390625 517.804688 L 277.121094 520.535156 L 272.390625 523.265625 C 271.414062 523.832031 270.8125 524.871094 270.8125 526 C 270.8125 527.125 271.414062 528.167969 272.390625 528.730469 L 277.121094 531.464844 L 272.390625 534.195312 C 271.414062 534.757812 270.8125 535.796875 270.8125 536.925781 C 270.8125 538.054688 271.414062 539.09375 272.390625 539.65625 L 277.121094 542.390625 L 272.390625 545.121094 C 271.414062 545.683594 270.8125 546.726562 270.8125 547.855469 C 270.8125 548.980469 271.414062 550.023438 272.390625 550.585938 L 277.121094 553.316406 L 272.390625 556.050781 C 271.414062 556.613281 270.8125 557.652344 270.8125 558.78125 C 270.8125 559.910156 271.414062 560.949219 272.390625 561.511719 L 277.121094 564.246094 L 272.390625 566.976562 C 271.414062 567.539062 270.8125 568.582031 270.8125 569.707031 C 270.8125 570.835938 271.414062 571.875 272.390625 572.441406 L 277.121094 575.171875 L 272.390625 577.90625 C 271.414062 578.46875 270.8125 579.511719 270.8125 580.640625 C 270.8125 581.765625 271.414062 582.808594 272.390625 583.371094 L 277.121094 586.101562 L 272.390625 588.832031 C 271.414062 589.394531 270.8125 590.4375 270.8125 591.5625 C 270.8125 592.691406 271.414062 593.730469 272.390625 594.296875 L 277.121094 597.027344 C 277.121094 609.097656 286.910156 618.882812 298.980469 618.882812 L 430.109375 618.882812 C 442.179688 618.882812 451.964844 609.097656 451.964844 597.027344 L 451.964844 509.605469 L 375.449219 504.824219 C 369.320312 504.441406 364.542969 499.359375 364.542969 493.214844 C 364.542969 487.070312 369.320312 481.988281 375.449219 481.605469 "/>
<path style=" stroke:none;fill-rule:evenodd;fill:rgb(24.313726%,80.000001%,37.254903%);fill-opacity:1;" d="M 408.253906 618.882812 L 441.035156 618.882812 L 441.035156 575.171875 L 408.253906 575.171875 Z M 408.253906 618.882812 "/>
<path style=" stroke:none;fill-rule:evenodd;fill:rgb(26.666668%,84.705883%,37.64706%);fill-opacity:1;" d="M 462.894531 591.5625 C 462.660156 591.570312 462.425781 591.59375 462.191406 591.632812 C 462.152344 591.46875 462.113281 591.304688 462.066406 591.140625 C 464.03125 590.335938 465.351562 588.460938 465.449219 586.339844 C 465.542969 584.214844 464.402344 582.230469 462.515625 581.25 C 460.632812 580.269531 458.347656 580.472656 456.664062 581.769531 C 456.546875 581.644531 456.421875 581.523438 456.300781 581.402344 C 457.566406 579.714844 457.746094 577.453125 456.765625 575.585938 C 455.785156 573.71875 453.816406 572.585938 451.710938 572.675781 C 449.601562 572.765625 447.738281 574.058594 446.914062 576 C 446.753906 575.953125 446.589844 575.917969 446.429688 575.875 C 446.78125 573.734375 445.839844 571.589844 444.023438 570.40625 C 442.207031 569.222656 439.863281 569.222656 438.046875 570.40625 C 436.234375 571.589844 435.289062 573.734375 435.640625 575.875 C 435.480469 575.917969 435.316406 575.953125 435.15625 576 C 434.339844 574.050781 432.472656 572.746094 430.359375 572.652344 C 428.246094 572.558594 426.269531 573.699219 425.289062 575.570312 C 424.304688 577.445312 424.496094 579.714844 425.773438 581.402344 C 419.148438 587.859375 417.316406 597.789062 421.191406 606.1875 C 425.066406 614.585938 433.8125 619.636719 443.023438 618.789062 C 452.234375 617.941406 459.914062 611.386719 462.191406 602.421875 C 464.210938 602.683594 466.203125 601.804688 467.367188 600.136719 C 468.535156 598.472656 468.671875 596.292969 467.734375 594.492188 C 466.792969 592.691406 464.925781 591.558594 462.894531 591.5625 "/>
<path style=" stroke:none;fill-rule:evenodd;fill:rgb(24.313726%,80.000001%,37.254903%);fill-opacity:1;" d="M 419.183594 553.316406 L 451.964844 553.316406 L 451.964844 531.460938 L 419.183594 531.460938 Z M 419.183594 553.316406 "/>
<path style=" stroke:none;fill-rule:evenodd;fill:rgb(26.666668%,84.705883%,37.64706%);fill-opacity:1;" d="M 462.894531 545.121094 C 464.402344 545.121094 465.625 543.898438 465.625 542.390625 C 465.625 540.878906 464.402344 539.65625 462.894531 539.65625 C 462.777344 539.660156 462.660156 539.671875 462.542969 539.691406 C 462.523438 539.609375 462.503906 539.527344 462.480469 539.445312 C 463.679688 538.941406 464.359375 537.664062 464.101562 536.390625 C 463.847656 535.113281 462.730469 534.195312 461.429688 534.191406 C 460.832031 534.195312 460.253906 534.394531 459.78125 534.757812 C 459.722656 534.695312 459.660156 534.636719 459.597656 534.574219 C 459.953125 534.105469 460.148438 533.53125 460.148438 532.941406 C 460.148438 531.644531 459.234375 530.527344 457.964844 530.265625 C 456.691406 530.007812 455.414062 530.679688 454.90625 531.871094 C 450.449219 530.613281 445.683594 532.296875 443.007812 536.078125 C 440.335938 539.859375 440.335938 544.914062 443.007812 548.695312 C 445.683594 552.476562 450.449219 554.164062 454.90625 552.902344 C 455.414062 554.097656 456.691406 554.765625 457.964844 554.507812 C 459.234375 554.25 460.148438 553.128906 460.148438 551.832031 C 460.148438 551.242188 459.953125 550.667969 459.597656 550.199219 C 459.660156 550.140625 459.71875 550.078125 459.78125 550.015625 C 460.253906 550.382812 460.832031 550.582031 461.429688 550.582031 C 462.730469 550.582031 463.851562 549.664062 464.105469 548.386719 C 464.363281 547.109375 463.683594 545.832031 462.480469 545.328125 C 462.503906 545.246094 462.523438 545.164062 462.542969 545.082031 C 462.660156 545.101562 462.777344 545.113281 462.894531 545.117188 "/>
<path style=" stroke:none;fill-rule:evenodd;fill:rgb(0%,0%,0%);fill-opacity:1;" d="M 320.835938 479.554688 C 319.328125 479.554688 318.105469 478.332031 318.105469 476.824219 C 317.957031 472.402344 314.332031 468.894531 309.910156 468.894531 C 305.484375 468.894531 301.859375 472.402344 301.714844 476.824219 C 301.714844 478.332031 300.488281 479.554688 298.980469 479.554688 C 297.472656 479.554688 296.25 478.332031 296.25 476.824219 C 296.25 469.28125 302.363281 463.164062 309.910156 463.164062 C 317.453125 463.164062 323.566406 469.28125 323.566406 476.824219 C 323.566406 478.332031 322.34375 479.554688 320.835938 479.554688 "/>
<path style=" stroke:none;fill-rule:evenodd;fill:rgb(100%,100%,31.37255%);fill-opacity:1;" d="M 364.546875 618.882812 L 430.109375 618.882812 C 442.179688 618.882812 451.964844 609.097656 451.964844 597.027344 L 451.964844 520.535156 L 386.402344 520.535156 C 374.332031 520.535156 364.546875 530.320312 364.546875 542.390625 Z M 364.546875 618.882812 "/>
<path style=" stroke:none;fill-rule:evenodd;fill:rgb(0%,0%,0%);fill-opacity:1;" d="M 435.597656 554.410156 L 380.914062 554.410156 C 380.515625 554.421875 380.144531 554.214844 379.941406 553.875 C 379.738281 553.53125 379.738281 553.105469 379.941406 552.761719 C 380.144531 552.417969 380.515625 552.214844 380.914062 552.226562 L 435.597656 552.226562 C 436.1875 552.242188 436.65625 552.726562 436.65625 553.316406 C 436.65625 553.910156 436.1875 554.390625 435.597656 554.410156 M 435.597656 576.265625 L 380.914062 576.265625 C 380.3125 576.265625 379.820312 575.777344 379.820312 575.171875 C 379.820312 574.566406 380.3125 574.078125 380.914062 574.078125 L 435.597656 574.078125 C 436.199219 574.078125 436.6875 574.566406 436.6875 575.171875 C 436.6875 575.777344 436.199219 576.265625 435.597656 576.265625 M 435.597656 598.121094 L 380.914062 598.121094 C 380.515625 598.132812 380.144531 597.925781 379.941406 597.582031 C 379.738281 597.242188 379.738281 596.816406 379.941406 596.472656 C 380.144531 596.128906 380.515625 595.921875 380.914062 595.933594 L 435.597656 595.933594 C 436.1875 595.953125 436.65625 596.4375 436.65625 597.027344 C 436.65625 597.617188 436.1875 598.101562 435.597656 598.121094 M 435.597656 543.6875 L 380.914062 543.6875 C 380.515625 543.699219 380.144531 543.492188 379.941406 543.148438 C 379.738281 542.804688 379.738281 542.378906 379.941406 542.039062 C 380.144531 541.695312 380.515625 541.488281 380.914062 541.5 L 435.597656 541.5 C 436.1875 541.519531 436.65625 542.003906 436.65625 542.59375 C 436.65625 543.183594 436.1875 543.667969 435.597656 543.6875 M 435.597656 565.339844 L 380.914062 565.339844 C 380.3125 565.339844 379.820312 564.847656 379.820312 564.246094 C 379.820312 563.640625 380.3125 563.152344 380.914062 563.152344 L 435.597656 563.152344 C 436.199219 563.152344 436.6875 563.640625 436.6875 564.246094 C 436.6875 564.847656 436.199219 565.339844 435.597656 565.339844 M 435.597656 587.191406 L 380.914062 587.191406 C 380.3125 587.191406 379.820312 586.703125 379.820312 586.101562 C 379.820312 585.496094 380.3125 585.007812 380.914062 585.007812 L 435.597656 585.007812 C 436.199219 585.007812 436.6875 585.496094 436.6875 586.101562 C 436.6875 586.703125 436.199219 587.191406 435.597656 587.191406 M 451.964844 486.234375 C 451.953125 486.234375 451.941406 486.226562 451.929688 486.230469 C 448.550781 486.34375 446.953125 489.722656 445.542969 492.699219 C 444.074219 495.816406 442.9375 497.839844 441.070312 497.777344 C 439.007812 497.703125 437.828125 495.371094 436.578125 492.90625 C 435.140625 490.070312 433.503906 486.855469 430.0625 486.976562 C 426.730469 487.089844 425.128906 490.027344 423.714844 492.621094 C 422.214844 495.382812 421.1875 497.0625 419.214844 496.984375 C 417.109375 496.910156 415.988281 495.015625 414.695312 492.820312 C 413.25 490.375 411.582031 487.628906 408.207031 487.71875 C 404.9375 487.832031 403.328125 490.324219 401.90625 492.527344 C 400.40625 494.855469 399.355469 496.273438 397.355469 496.1875 C 395.199219 496.113281 394.085938 494.539062 392.800781 492.71875 C 391.351562 490.671875 389.722656 488.355469 386.355469 488.464844 C 383.15625 488.574219 381.550781 490.617188 380.132812 492.421875 C 378.785156 494.128906 377.734375 495.480469 375.511719 495.398438 C 374.910156 495.375 374.402344 495.847656 374.378906 496.449219 C 374.359375 497.054688 374.828125 497.5625 375.433594 497.582031 C 378.734375 497.691406 380.398438 495.617188 381.851562 493.773438 C 383.136719 492.136719 384.25 490.726562 386.433594 490.652344 C 388.53125 490.5625 389.523438 491.871094 391.015625 493.980469 C 392.433594 495.980469 394.042969 498.257812 397.277344 498.375 C 400.671875 498.488281 402.300781 495.953125 403.746094 493.710938 C 405.039062 491.710938 406.152344 489.976562 408.28125 489.902344 C 410.238281 489.832031 411.308594 491.378906 412.808594 493.925781 C 414.226562 496.324219 415.832031 499.046875 419.132812 499.167969 C 422.550781 499.285156 424.199219 496.304688 425.632812 493.667969 C 426.878906 491.386719 428.054688 489.230469 430.132812 489.15625 C 432.09375 489.113281 433.113281 490.902344 434.625 493.890625 C 436.039062 496.679688 437.640625 499.839844 440.992188 499.960938 L 441.175781 499.960938 C 444.523438 499.960938 446.113281 496.601562 447.519531 493.628906 C 448.765625 490.996094 449.941406 488.515625 451.964844 488.414062 Z M 451.964844 486.234375 "/>
<path style=" stroke:none;fill-rule:evenodd;fill:rgb(24.313726%,80.000001%,37.254903%);fill-opacity:1;" d="M 342.691406 618.882812 L 386.402344 618.882812 L 386.402344 575.171875 L 342.691406 575.171875 Z M 342.691406 618.882812 "/>
<path style=" stroke:none;fill-rule:nonzero;fill:rgb(84.705883%,84.705883%,84.705883%);fill-opacity:1;" d="M 366.53125 528.300781 L 451.886719 505.414062 C 452.953125 505.128906 454.050781 505.761719 454.335938 506.828125 L 462.746094 538.1875 C 463.03125 539.253906 462.398438 540.351562 461.332031 540.636719 L 375.972656 563.523438 C 374.90625 563.808594 373.808594 563.175781 373.523438 562.109375 L 365.117188 530.75 C 364.828125 529.683594 365.464844 528.585938 366.53125 528.300781 Z M 366.53125 528.300781 "/>
<path style=" stroke:none;fill-rule:nonzero;fill:rgb(29.019609%,29.019609%,29.019609%);fill-opacity:1;" d="M 389.234375 546.058594 L 392.457031 545.195312 C 392.988281 545.050781 393.539062 545.367188 393.679688 545.902344 L 394.546875 549.125 C 394.6875 549.65625 394.371094 550.207031 393.839844 550.347656 L 390.617188 551.214844 C 390.082031 551.355469 389.535156 551.039062 389.390625 550.507812 L 388.527344 547.285156 C 388.382812 546.75 388.699219 546.203125 389.234375 546.058594 Z M 389.234375 546.058594 "/>
<path style=" stroke:none;fill-rule:nonzero;fill:rgb(29.019609%,29.019609%,29.019609%);fill-opacity:1;" d="M 395.339844 544.421875 L 398.5625 543.558594 C 399.097656 543.414062 399.644531 543.730469 399.789062 544.265625 L 400.652344 547.488281 C 400.796875 548.019531 400.480469 548.570312 399.945312 548.710938 L 396.722656 549.574219 C 396.191406 549.71875 395.640625 549.402344 395.5 548.867188 L 394.632812 545.644531 C 394.492188 545.113281 394.808594 544.5625 395.339844 544.421875 Z M 395.339844 544.421875 "/>
<path style=" stroke:none;fill-rule:nonzero;fill:rgb(29.019609%,29.019609%,29.019609%);fill-opacity:1;" d="M 401.449219 542.785156 L 404.671875 541.917969 C 405.207031 541.777344 405.753906 542.09375 405.898438 542.625 L 406.761719 545.847656 C 406.90625 546.382812 406.589844 546.929688 406.054688 547.074219 L 402.832031 547.9375 C 402.300781 548.082031 401.75 547.765625 401.609375 547.230469 L 400.742188 544.007812 C 400.601562 543.476562 400.917969 542.925781 401.449219 542.785156 Z M 401.449219 542.785156 "/>
<path style=" stroke:none;fill-rule:nonzero;fill:rgb(29.019609%,29.019609%,29.019609%);fill-opacity:1;" d="M 407.558594 541.144531 L 410.78125 540.28125 C 411.316406 540.136719 411.863281 540.453125 412.007812 540.988281 L 412.871094 544.210938 C 413.015625 544.746094 412.699219 545.292969 412.164062 545.4375 L 408.941406 546.300781 C 408.40625 546.441406 407.859375 546.125 407.714844 545.59375 L 406.851562 542.371094 C 406.710938 541.835938 407.027344 541.289062 407.558594 541.144531 Z M 407.558594 541.144531 "/>
<path style=" stroke:none;fill-rule:nonzero;fill:rgb(29.019609%,29.019609%,29.019609%);fill-opacity:1;" d="M 413.667969 539.507812 L 416.890625 538.644531 C 417.421875 538.5 417.972656 538.816406 418.113281 539.351562 L 418.980469 542.574219 C 419.121094 543.105469 418.804688 543.65625 418.273438 543.796875 L 415.050781 544.664062 C 414.515625 544.804688 413.96875 544.488281 413.824219 543.957031 L 412.960938 540.734375 C 412.816406 540.199219 413.132812 539.652344 413.667969 539.507812 Z M 413.667969 539.507812 "/>
<path style=" stroke:none;fill-rule:nonzero;fill:rgb(29.019609%,29.019609%,29.019609%);fill-opacity:1;" d="M 419.777344 537.871094 L 423 537.007812 C 423.53125 536.863281 424.082031 537.179688 424.222656 537.714844 L 425.089844 540.933594 C 425.230469 541.46875 424.914062 542.015625 424.382812 542.160156 L 421.160156 543.023438 C 420.625 543.167969 420.078125 542.851562 419.933594 542.316406 L 419.070312 539.09375 C 418.925781 538.5625 419.242188 538.011719 419.777344 537.871094 Z M 419.777344 537.871094 "/>
<path style=" stroke:none;fill-rule:nonzero;fill:rgb(29.019609%,29.019609%,29.019609%);fill-opacity:1;" d="M 425.886719 536.230469 L 429.109375 535.367188 C 429.640625 535.226562 430.191406 535.542969 430.332031 536.074219 L 431.195312 539.296875 C 431.339844 539.832031 431.023438 540.378906 430.488281 540.523438 L 427.269531 541.386719 C 426.734375 541.53125 426.1875 541.214844 426.042969 540.679688 L 425.179688 537.457031 C 425.035156 536.921875 425.351562 536.375 425.886719 536.230469 Z M 425.886719 536.230469 "/>
<path style=" stroke:none;fill-rule:nonzero;fill:rgb(29.019609%,29.019609%,29.019609%);fill-opacity:1;" d="M 431.996094 534.59375 L 435.21875 533.730469 C 435.75 533.585938 436.300781 533.902344 436.441406 534.4375 L 437.304688 537.660156 C 437.449219 538.191406 437.132812 538.742188 436.597656 538.882812 L 433.375 539.75 C 432.84375 539.890625 432.292969 539.574219 432.152344 539.042969 L 431.289062 535.820312 C 431.144531 535.285156 431.460938 534.738281 431.996094 534.59375 Z M 431.996094 534.59375 "/>
<path style=" stroke:none;fill-rule:nonzero;fill:rgb(29.019609%,29.019609%,29.019609%);fill-opacity:1;" d="M 438.101562 532.957031 L 441.324219 532.09375 C 441.859375 531.949219 442.40625 532.265625 442.550781 532.800781 L 443.414062 536.023438 C 443.558594 536.554688 443.242188 537.105469 442.707031 537.246094 L 439.484375 538.109375 C 438.949219 538.253906 438.402344 537.9375 438.257812 537.402344 L 437.394531 534.179688 C 437.253906 533.648438 437.570312 533.097656 438.101562 532.957031 Z M 438.101562 532.957031 "/>
<path style=" stroke:none;fill-rule:evenodd;fill:rgb(29.019609%,29.019609%,29.019609%);fill-opacity:1;" d="M 373.097656 550.386719 L 386.066406 546.910156 C 386.648438 546.75 387.25 547.097656 387.40625 547.679688 L 388.222656 550.722656 C 388.378906 551.308594 388.03125 551.90625 387.449219 552.0625 L 374.480469 555.539062 C 373.894531 555.695312 373.296875 555.351562 373.140625 554.765625 L 372.324219 551.722656 C 372.167969 551.140625 372.515625 550.542969 373.097656 550.386719 Z M 444.492188 531.242188 L 457.460938 527.765625 C 458.042969 527.609375 458.644531 527.957031 458.800781 528.539062 L 459.617188 531.582031 C 459.773438 532.164062 459.425781 532.765625 458.84375 532.921875 L 445.875 536.398438 C 445.289062 536.554688 444.691406 536.207031 444.535156 535.625 L 443.71875 532.582031 C 443.5625 532 443.910156 531.398438 444.492188 531.242188 Z M 444.492188 531.242188 "/>
<path style=" stroke:none;fill-rule:evenodd;fill:rgb(29.019609%,29.019609%,29.019609%);fill-opacity:1;" d="M 369.789062 538.050781 L 374.742188 536.722656 C 375.324219 536.566406 375.921875 536.914062 376.078125 537.496094 L 376.894531 540.539062 C 377.050781 541.121094 376.707031 541.71875 376.121094 541.875 L 371.171875 543.203125 C 370.589844 543.359375 369.988281 543.015625 369.832031 542.429688 L 369.019531 539.390625 C 368.859375 538.804688 369.207031 538.207031 369.789062 538.050781 Z M 369.789062 538.050781 "/>
<path style=" stroke:none;fill-rule:nonzero;fill:rgb(29.019609%,29.019609%,29.019609%);fill-opacity:1;" d="M 377.71875 535.925781 L 380.941406 535.0625 C 381.472656 534.917969 382.023438 535.234375 382.164062 535.769531 L 383.027344 538.992188 C 383.171875 539.523438 382.855469 540.074219 382.320312 540.214844 L 379.097656 541.078125 C 378.566406 541.222656 378.015625 540.90625 377.875 540.371094 L 377.011719 537.148438 C 376.867188 536.617188 377.183594 536.066406 377.71875 535.925781 Z M 377.71875 535.925781 "/>
<path style=" stroke:none;fill-rule:nonzero;fill:rgb(29.019609%,29.019609%,29.019609%);fill-opacity:1;" d="M 383.828125 534.289062 L 387.050781 533.421875 C 387.582031 533.28125 388.132812 533.597656 388.273438 534.128906 L 389.136719 537.351562 C 389.28125 537.886719 388.964844 538.433594 388.429688 538.578125 L 385.207031 539.441406 C 384.675781 539.585938 384.125 539.269531 383.984375 538.734375 L 383.121094 535.511719 C 382.976562 534.980469 383.292969 534.429688 383.828125 534.289062 Z M 383.828125 534.289062 "/>
<path style=" stroke:none;fill-rule:nonzero;fill:rgb(29.019609%,29.019609%,29.019609%);fill-opacity:1;" d="M 389.933594 532.648438 L 393.15625 531.785156 C 393.691406 531.640625 394.238281 531.957031 394.382812 532.492188 L 395.246094 535.714844 C 395.390625 536.25 395.074219 536.796875 394.539062 536.941406 L 391.316406 537.804688 C 390.785156 537.945312 390.234375 537.628906 390.09375 537.097656 L 389.226562 533.875 C 389.085938 533.339844 389.402344 532.792969 389.933594 532.648438 Z M 389.933594 532.648438 "/>
<path style=" stroke:none;fill-rule:nonzero;fill:rgb(29.019609%,29.019609%,29.019609%);fill-opacity:1;" d="M 396.042969 531.011719 L 399.265625 530.148438 C 399.800781 530.003906 400.347656 530.320312 400.492188 530.855469 L 401.355469 534.078125 C 401.5 534.609375 401.183594 535.160156 400.648438 535.300781 L 397.425781 536.164062 C 396.894531 536.308594 396.34375 535.992188 396.203125 535.460938 L 395.335938 532.238281 C 395.195312 531.703125 395.511719 531.15625 396.042969 531.011719 Z M 396.042969 531.011719 "/>
<path style=" stroke:none;fill-rule:nonzero;fill:rgb(29.019609%,29.019609%,29.019609%);fill-opacity:1;" d="M 402.152344 529.375 L 405.375 528.507812 C 405.910156 528.367188 406.457031 528.683594 406.601562 529.214844 L 407.464844 532.4375 C 407.605469 532.972656 407.289062 533.519531 406.757812 533.664062 L 403.535156 534.527344 C 403 534.671875 402.453125 534.355469 402.308594 533.820312 L 401.445312 530.597656 C 401.300781 530.066406 401.617188 529.515625 402.152344 529.375 Z M 402.152344 529.375 "/>
<path style=" stroke:none;fill-rule:nonzero;fill:rgb(29.019609%,29.019609%,29.019609%);fill-opacity:1;" d="M 408.261719 527.734375 L 411.484375 526.871094 C 412.015625 526.730469 412.566406 527.046875 412.707031 527.578125 L 413.574219 530.800781 C 413.714844 531.335938 413.398438 531.882812 412.867188 532.027344 L 409.644531 532.890625 C 409.109375 533.035156 408.5625 532.71875 408.417969 532.183594 L 407.554688 528.960938 C 407.410156 528.425781 407.726562 527.878906 408.261719 527.734375 Z M 408.261719 527.734375 "/>
<path style=" stroke:none;fill-rule:nonzero;fill:rgb(29.019609%,29.019609%,29.019609%);fill-opacity:1;" d="M 414.371094 526.097656 L 417.59375 525.234375 C 418.125 525.089844 418.675781 525.40625 418.816406 525.941406 L 419.683594 529.164062 C 419.824219 529.695312 419.507812 530.246094 418.976562 530.386719 L 415.753906 531.253906 C 415.21875 531.394531 414.671875 531.078125 414.527344 530.546875 L 413.664062 527.324219 C 413.519531 526.789062 413.835938 526.242188 414.371094 526.097656 Z M 414.371094 526.097656 "/>
<path style=" stroke:none;fill-rule:nonzero;fill:rgb(29.019609%,29.019609%,29.019609%);fill-opacity:1;" d="M 420.476562 524.460938 L 423.699219 523.597656 C 424.234375 523.453125 424.78125 523.769531 424.925781 524.304688 L 425.789062 527.527344 C 425.933594 528.058594 425.617188 528.609375 425.082031 528.75 L 421.859375 529.613281 C 421.328125 529.757812 420.777344 529.441406 420.636719 528.90625 L 419.769531 525.683594 C 419.628906 525.152344 419.945312 524.601562 420.476562 524.460938 Z M 420.476562 524.460938 "/>
<path style=" stroke:none;fill-rule:nonzero;fill:rgb(29.019609%,29.019609%,29.019609%);fill-opacity:1;" d="M 426.585938 522.824219 L 429.808594 521.957031 C 430.34375 521.816406 430.890625 522.132812 431.035156 522.664062 L 431.898438 525.886719 C 432.039062 526.421875 431.722656 526.96875 431.191406 527.113281 L 427.96875 527.976562 C 427.433594 528.121094 426.886719 527.804688 426.742188 527.269531 L 425.878906 524.046875 C 425.734375 523.515625 426.054688 522.964844 426.585938 522.824219 Z M 426.585938 522.824219 "/>
<path style=" stroke:none;fill-rule:nonzero;fill:rgb(29.019609%,29.019609%,29.019609%);fill-opacity:1;" d="M 432.695312 521.183594 L 435.917969 520.320312 C 436.453125 520.175781 437 520.496094 437.144531 521.027344 L 438.007812 524.25 C 438.148438 524.785156 437.832031 525.332031 437.300781 525.476562 L 434.078125 526.339844 C 433.542969 526.480469 432.996094 526.164062 432.851562 525.632812 L 431.988281 522.410156 C 431.84375 521.875 432.160156 521.328125 432.695312 521.183594 Z M 432.695312 521.183594 "/>
<path style=" stroke:none;fill-rule:nonzero;fill:rgb(29.019609%,29.019609%,29.019609%);fill-opacity:1;" d="M 438.804688 519.546875 L 442.027344 518.683594 C 442.558594 518.539062 443.109375 518.855469 443.25 519.390625 L 444.117188 522.613281 C 444.257812 523.144531 443.941406 523.695312 443.410156 523.835938 L 440.1875 524.703125 C 439.652344 524.84375 439.105469 524.527344 438.960938 523.996094 L 438.097656 520.773438 C 437.953125 520.238281 438.269531 519.691406 438.804688 519.546875 Z M 438.804688 519.546875 "/>
<path style=" stroke:none;fill-rule:nonzero;fill:rgb(29.019609%,29.019609%,29.019609%);fill-opacity:1;" d="M 444.914062 517.910156 L 448.136719 517.046875 C 448.667969 516.902344 449.21875 517.21875 449.359375 517.753906 L 450.222656 520.976562 C 450.367188 521.507812 450.050781 522.054688 449.515625 522.199219 L 446.292969 523.0625 C 445.761719 523.207031 445.210938 522.890625 445.070312 522.355469 L 444.207031 519.132812 C 444.0625 518.601562 444.378906 518.050781 444.914062 517.910156 Z M 444.914062 517.910156 "/>
<path style=" stroke:none;fill-rule:nonzero;fill:rgb(29.019609%,29.019609%,29.019609%);fill-opacity:1;" d="M 451.019531 516.269531 L 454.242188 515.40625 C 454.777344 515.265625 455.324219 515.582031 455.46875 516.113281 L 456.332031 519.335938 C 456.476562 519.871094 456.160156 520.417969 455.625 520.5625 L 452.402344 521.425781 C 451.871094 521.570312 451.320312 521.253906 451.179688 520.71875 L 450.3125 517.496094 C 450.171875 516.960938 450.488281 516.414062 451.019531 516.269531 Z M 451.019531 516.269531 "/>
<path style=" stroke:none;fill-rule:evenodd;fill:rgb(29.019609%,29.019609%,29.019609%);fill-opacity:1;" d="M 453.96875 514.742188 L 449.015625 516.066406 C 448.433594 516.222656 447.835938 515.878906 447.679688 515.296875 L 446.863281 512.253906 C 446.707031 511.667969 447.050781 511.070312 447.636719 510.914062 L 452.585938 509.585938 C 453.171875 509.429688 453.769531 509.777344 453.925781 510.359375 L 454.742188 513.402344 C 454.898438 513.984375 454.550781 514.585938 453.96875 514.742188 Z M 453.96875 514.742188 "/>
<path style=" stroke:none;fill-rule:nonzero;fill:rgb(29.019609%,29.019609%,29.019609%);fill-opacity:1;" d="M 446.042969 516.867188 L 442.820312 517.730469 C 442.285156 517.871094 441.738281 517.554688 441.59375 517.023438 L 440.730469 513.800781 C 440.585938 513.265625 440.902344 512.71875 441.4375 512.574219 L 444.660156 511.710938 C 445.195312 511.566406 445.742188 511.886719 445.886719 512.417969 L 446.75 515.640625 C 446.890625 516.175781 446.574219 516.722656 446.042969 516.867188 Z M 446.042969 516.867188 "/>
<path style=" stroke:none;fill-rule:nonzero;fill:rgb(29.019609%,29.019609%,29.019609%);fill-opacity:1;" d="M 439.933594 518.503906 L 436.710938 519.367188 C 436.175781 519.511719 435.628906 519.195312 435.484375 518.660156 L 434.621094 515.4375 C 434.476562 514.90625 434.792969 514.355469 435.328125 514.214844 L 438.550781 513.347656 C 439.085938 513.207031 439.632812 513.523438 439.777344 514.054688 L 440.640625 517.277344 C 440.78125 517.8125 440.464844 518.359375 439.933594 518.503906 Z M 439.933594 518.503906 "/>
<path style=" stroke:none;fill-rule:nonzero;fill:rgb(29.019609%,29.019609%,29.019609%);fill-opacity:1;" d="M 433.824219 520.140625 L 430.601562 521.003906 C 430.066406 521.148438 429.519531 520.832031 429.375 520.296875 L 428.511719 517.078125 C 428.371094 516.542969 428.6875 515.996094 429.21875 515.851562 L 432.441406 514.988281 C 432.976562 514.84375 433.523438 515.160156 433.667969 515.695312 L 434.53125 518.917969 C 434.675781 519.449219 434.359375 520 433.824219 520.140625 Z M 433.824219 520.140625 "/>
<path style=" stroke:none;fill-rule:nonzero;fill:rgb(29.019609%,29.019609%,29.019609%);fill-opacity:1;" d="M 427.714844 521.78125 L 424.492188 522.644531 C 423.957031 522.785156 423.410156 522.46875 423.265625 521.9375 L 422.402344 518.714844 C 422.261719 518.179688 422.578125 517.632812 423.109375 517.488281 L 426.332031 516.625 C 426.867188 516.480469 427.414062 516.796875 427.558594 517.332031 L 428.421875 520.554688 C 428.566406 521.089844 428.25 521.636719 427.714844 521.78125 Z M 427.714844 521.78125 "/>
<path style=" stroke:none;fill-rule:nonzero;fill:rgb(29.019609%,29.019609%,29.019609%);fill-opacity:1;" d="M 421.605469 523.417969 L 418.382812 524.28125 C 417.851562 524.425781 417.300781 524.109375 417.160156 523.574219 L 416.296875 520.351562 C 416.152344 519.816406 416.46875 519.269531 417.003906 519.125 L 420.226562 518.261719 C 420.757812 518.121094 421.308594 518.4375 421.449219 518.96875 L 422.3125 522.191406 C 422.457031 522.726562 422.140625 523.273438 421.605469 523.417969 Z M 421.605469 523.417969 "/>
<path style=" stroke:none;fill-rule:nonzero;fill:rgb(29.019609%,29.019609%,29.019609%);fill-opacity:1;" d="M 415.496094 525.054688 L 412.273438 525.917969 C 411.742188 526.0625 411.195312 525.746094 411.050781 525.210938 L 410.1875 521.988281 C 410.042969 521.457031 410.359375 520.90625 410.894531 520.765625 L 414.117188 519.902344 C 414.648438 519.757812 415.199219 520.074219 415.339844 520.609375 L 416.203125 523.832031 C 416.347656 524.363281 416.03125 524.914062 415.496094 525.054688 Z M 415.496094 525.054688 "/>
<path style=" stroke:none;fill-rule:nonzero;fill:rgb(29.019609%,29.019609%,29.019609%);fill-opacity:1;" d="M 409.390625 526.691406 L 406.167969 527.558594 C 405.632812 527.699219 405.085938 527.382812 404.941406 526.851562 L 404.078125 523.628906 C 403.933594 523.09375 404.25 522.546875 404.785156 522.402344 L 408.007812 521.539062 C 408.539062 521.394531 409.089844 521.710938 409.230469 522.246094 L 410.097656 525.46875 C 410.238281 526 409.921875 526.550781 409.390625 526.691406 Z M 409.390625 526.691406 "/>
<path style=" stroke:none;fill-rule:nonzero;fill:rgb(29.019609%,29.019609%,29.019609%);fill-opacity:1;" d="M 403.28125 528.332031 L 400.058594 529.195312 C 399.523438 529.335938 398.976562 529.019531 398.832031 528.488281 L 397.96875 525.265625 C 397.828125 524.730469 398.144531 524.183594 398.675781 524.039062 L 401.898438 523.175781 C 402.433594 523.03125 402.980469 523.351562 403.125 523.882812 L 403.988281 527.105469 C 404.132812 527.640625 403.8125 528.1875 403.28125 528.332031 Z M 403.28125 528.332031 "/>
<path style=" stroke:none;fill-rule:nonzero;fill:rgb(29.019609%,29.019609%,29.019609%);fill-opacity:1;" d="M 397.171875 529.96875 L 393.949219 530.832031 C 393.414062 530.976562 392.867188 530.660156 392.722656 530.125 L 391.859375 526.902344 C 391.71875 526.371094 392.035156 525.820312 392.566406 525.679688 L 395.789062 524.8125 C 396.324219 524.671875 396.871094 524.988281 397.015625 525.519531 L 397.878906 528.742188 C 398.023438 529.277344 397.707031 529.824219 397.171875 529.96875 Z M 397.171875 529.96875 "/>
<path style=" stroke:none;fill-rule:nonzero;fill:rgb(29.019609%,29.019609%,29.019609%);fill-opacity:1;" d="M 391.0625 531.605469 L 387.839844 532.46875 C 387.308594 532.613281 386.757812 532.296875 386.617188 531.765625 L 385.75 528.542969 C 385.609375 528.007812 385.925781 527.460938 386.457031 527.316406 L 389.679688 526.453125 C 390.214844 526.308594 390.761719 526.625 390.90625 527.160156 L 391.769531 530.382812 C 391.914062 530.914062 391.597656 531.464844 391.0625 531.605469 Z M 391.0625 531.605469 "/>
<path style=" stroke:none;fill-rule:nonzero;fill:rgb(29.019609%,29.019609%,29.019609%);fill-opacity:1;" d="M 384.953125 533.246094 L 381.730469 534.109375 C 381.199219 534.25 380.648438 533.933594 380.507812 533.402344 L 379.640625 530.179688 C 379.5 529.644531 379.816406 529.097656 380.347656 528.953125 L 383.570312 528.089844 C 384.105469 527.945312 384.652344 528.261719 384.796875 528.796875 L 385.660156 532.019531 C 385.804688 532.554688 385.488281 533.101562 384.953125 533.246094 Z M 384.953125 533.246094 "/>
<path style=" stroke:none;fill-rule:nonzero;fill:rgb(29.019609%,29.019609%,29.019609%);fill-opacity:1;" d="M 378.847656 534.882812 L 375.625 535.746094 C 375.089844 535.890625 374.542969 535.574219 374.398438 535.039062 L 373.535156 531.816406 C 373.390625 531.28125 373.707031 530.734375 374.242188 530.589844 L 377.464844 529.726562 C 377.996094 529.585938 378.546875 529.902344 378.6875 530.433594 L 379.554688 533.65625 C 379.695312 534.191406 379.378906 534.738281 378.847656 534.882812 Z M 378.847656 534.882812 "/>
<path style=" stroke:none;fill-rule:nonzero;fill:rgb(29.019609%,29.019609%,29.019609%);fill-opacity:1;" d="M 372.738281 536.519531 L 369.515625 537.382812 C 368.980469 537.527344 368.433594 537.210938 368.289062 536.675781 L 367.425781 533.453125 C 367.285156 532.921875 367.601562 532.371094 368.132812 532.230469 L 371.355469 531.367188 C 371.890625 531.222656 372.4375 531.539062 372.582031 532.074219 L 373.445312 535.292969 C 373.589844 535.828125 373.269531 536.375 372.738281 536.519531 Z M 372.738281 536.519531 "/>
<path style=" stroke:none;fill-rule:nonzero;fill:rgb(29.019609%,29.019609%,29.019609%);fill-opacity:1;" d="M 446.042969 516.867188 L 442.820312 517.730469 C 442.285156 517.871094 441.738281 517.554688 441.59375 517.023438 L 440.730469 513.800781 C 440.585938 513.265625 440.902344 512.71875 441.4375 512.574219 L 444.660156 511.710938 C 445.195312 511.566406 445.742188 511.886719 445.886719 512.417969 L 446.75 515.640625 C 446.890625 516.175781 446.574219 516.722656 446.042969 516.867188 Z M 446.042969 516.867188 "/>
<path style=" stroke:none;fill-rule:nonzero;fill:rgb(29.019609%,29.019609%,29.019609%);fill-opacity:1;" d="M 439.933594 518.503906 L 436.710938 519.367188 C 436.175781 519.511719 435.628906 519.195312 435.484375 518.660156 L 434.621094 515.4375 C 434.476562 514.90625 434.792969 514.355469 435.328125 514.214844 L 438.550781 513.347656 C 439.085938 513.207031 439.632812 513.523438 439.777344 514.054688 L 440.640625 517.277344 C 440.78125 517.8125 440.464844 518.359375 439.933594 518.503906 Z M 439.933594 518.503906 "/>
<path style=" stroke:none;fill-rule:nonzero;fill:rgb(29.019609%,29.019609%,29.019609%);fill-opacity:1;" d="M 433.824219 520.140625 L 430.601562 521.003906 C 430.066406 521.148438 429.519531 520.832031 429.375 520.296875 L 428.511719 517.078125 C 428.371094 516.542969 428.6875 515.996094 429.21875 515.851562 L 432.441406 514.988281 C 432.976562 514.84375 433.523438 515.160156 433.667969 515.695312 L 434.53125 518.917969 C 434.675781 519.449219 434.359375 520 433.824219 520.140625 Z M 433.824219 520.140625 "/>
<path style=" stroke:none;fill-rule:nonzero;fill:rgb(29.019609%,29.019609%,29.019609%);fill-opacity:1;" d="M 427.714844 521.78125 L 424.492188 522.644531 C 423.957031 522.785156 423.410156 522.46875 423.265625 521.9375 L 422.402344 518.714844 C 422.261719 518.179688 422.578125 517.632812 423.109375 517.488281 L 426.332031 516.625 C 426.867188 516.480469 427.414062 516.796875 427.558594 517.332031 L 428.421875 520.554688 C 428.566406 521.089844 428.25 521.636719 427.714844 521.78125 Z M 427.714844 521.78125 "/>
<path style=" stroke:none;fill-rule:nonzero;fill:rgb(29.019609%,29.019609%,29.019609%);fill-opacity:1;" d="M 421.605469 523.417969 L 418.382812 524.28125 C 417.851562 524.425781 417.300781 524.109375 417.160156 523.574219 L 416.296875 520.351562 C 416.152344 519.816406 416.46875 519.269531 417.003906 519.125 L 420.226562 518.261719 C 420.757812 518.121094 421.308594 518.4375 421.449219 518.96875 L 422.3125 522.191406 C 422.457031 522.726562 422.140625 523.273438 421.605469 523.417969 Z M 421.605469 523.417969 "/>
<path style=" stroke:none;fill-rule:nonzero;fill:rgb(29.019609%,29.019609%,29.019609%);fill-opacity:1;" d="M 415.496094 525.054688 L 412.273438 525.917969 C 411.742188 526.0625 411.195312 525.746094 411.050781 525.210938 L 410.1875 521.988281 C 410.042969 521.457031 410.359375 520.90625 410.894531 520.765625 L 414.117188 519.902344 C 414.648438 519.757812 415.199219 520.074219 415.339844 520.609375 L 416.203125 523.832031 C 416.347656 524.363281 416.03125 524.914062 415.496094 525.054688 Z M 415.496094 525.054688 "/>
<path style=" stroke:none;fill-rule:nonzero;fill:rgb(29.019609%,29.019609%,29.019609%);fill-opacity:1;" d="M 409.390625 526.691406 L 406.167969 527.558594 C 405.632812 527.699219 405.085938 527.382812 404.941406 526.851562 L 404.078125 523.628906 C 403.933594 523.09375 404.25 522.546875 404.785156 522.402344 L 408.007812 521.539062 C 408.539062 521.394531 409.089844 521.710938 409.230469 522.246094 L 410.097656 525.46875 C 410.238281 526 409.921875 526.550781 409.390625 526.691406 Z M 409.390625 526.691406 "/>
<path style=" stroke:none;fill-rule:nonzero;fill:rgb(29.019609%,29.019609%,29.019609%);fill-opacity:1;" d="M 403.28125 528.332031 L 400.058594 529.195312 C 399.523438 529.335938 398.976562 529.019531 398.832031 528.488281 L 397.96875 525.265625 C 397.828125 524.730469 398.144531 524.183594 398.675781 524.039062 L 401.898438 523.175781 C 402.433594 523.03125 402.980469 523.351562 403.125 523.882812 L 403.988281 527.105469 C 404.132812 527.640625 403.8125 528.1875 403.28125 528.332031 Z M 403.28125 528.332031 "/>
<path style=" stroke:none;fill-rule:nonzero;fill:rgb(29.019609%,29.019609%,29.019609%);fill-opacity:1;" d="M 397.171875 529.96875 L 393.949219 530.832031 C 393.414062 530.976562 392.867188 530.660156 392.722656 530.125 L 391.859375 526.902344 C 391.71875 526.371094 392.035156 525.820312 392.566406 525.679688 L 395.789062 524.8125 C 396.324219 524.671875 396.871094 524.988281 397.015625 525.519531 L 397.878906 528.742188 C 398.023438 529.277344 397.707031 529.824219 397.171875 529.96875 Z M 397.171875 529.96875 "/>
<path style=" stroke:none;fill-rule:nonzero;fill:rgb(29.019609%,29.019609%,29.019609%);fill-opacity:1;" d="M 391.0625 531.605469 L 387.839844 532.46875 C 387.308594 532.613281 386.757812 532.296875 386.617188 531.765625 L 385.75 528.542969 C 385.609375 528.007812 385.925781 527.460938 386.457031 527.316406 L 389.679688 526.453125 C 390.214844 526.308594 390.761719 526.625 390.90625 527.160156 L 391.769531 530.382812 C 391.914062 530.914062 391.597656 531.464844 391.0625 531.605469 Z M 391.0625 531.605469 "/>
<path style=" stroke:none;fill-rule:nonzero;fill:rgb(29.019609%,29.019609%,29.019609%);fill-opacity:1;" d="M 384.953125 533.246094 L 381.730469 534.109375 C 381.199219 534.25 380.648438 533.933594 380.507812 533.402344 L 379.640625 530.179688 C 379.5 529.644531 379.816406 529.097656 380.347656 528.953125 L 383.570312 528.089844 C 384.105469 527.945312 384.652344 528.261719 384.796875 528.796875 L 385.660156 532.019531 C 385.804688 532.554688 385.488281 533.101562 384.953125 533.246094 Z M 384.953125 533.246094 "/>
<path style=" stroke:none;fill-rule:nonzero;fill:rgb(29.019609%,29.019609%,29.019609%);fill-opacity:1;" d="M 378.847656 534.882812 L 375.625 535.746094 C 375.089844 535.890625 374.542969 535.574219 374.398438 535.039062 L 373.535156 531.816406 C 373.390625 531.28125 373.707031 530.734375 374.242188 530.589844 L 377.464844 529.726562 C 377.996094 529.585938 378.546875 529.902344 378.6875 530.433594 L 379.554688 533.65625 C 379.695312 534.191406 379.378906 534.738281 378.847656 534.882812 Z M 378.847656 534.882812 "/>
<path style=" stroke:none;fill-rule:nonzero;fill:rgb(29.019609%,29.019609%,29.019609%);fill-opacity:1;" d="M 372.738281 536.519531 L 369.515625 537.382812 C 368.980469 537.527344 368.433594 537.210938 368.289062 536.675781 L 367.425781 533.453125 C 367.285156 532.921875 367.601562 532.371094 368.132812 532.230469 L 371.355469 531.367188 C 371.890625 531.222656 372.4375 531.539062 372.582031 532.074219 L 373.445312 535.292969 C 373.589844 535.828125 373.269531 536.375 372.738281 536.519531 Z M 372.738281 536.519531 "/>
<path style=" stroke:none;fill-rule:evenodd;fill:rgb(29.019609%,29.019609%,29.019609%);fill-opacity:1;" d="M 371.429688 544.160156 L 378.480469 542.269531 C 379.0625 542.113281 379.660156 542.457031 379.816406 543.039062 L 380.632812 546.082031 C 380.789062 546.667969 380.445312 547.265625 379.859375 547.421875 L 372.808594 549.3125 C 372.226562 549.46875 371.628906 549.125 371.472656 548.539062 L 370.65625 545.5 C 370.5 544.914062 370.84375 544.316406 371.429688 544.160156 Z M 371.429688 544.160156 "/>
<path style=" stroke:none;fill-rule:nonzero;fill:rgb(29.019609%,29.019609%,29.019609%);fill-opacity:1;" d="M 381.644531 541.417969 L 384.867188 540.554688 C 385.402344 540.410156 385.949219 540.726562 386.09375 541.261719 L 386.957031 544.484375 C 387.101562 545.019531 386.785156 545.566406 386.25 545.710938 L 383.027344 546.574219 C 382.496094 546.714844 381.945312 546.398438 381.804688 545.867188 L 380.9375 542.644531 C 380.796875 542.109375 381.113281 541.5625 381.644531 541.417969 Z M 381.644531 541.417969 "/>
<path style=" stroke:none;fill-rule:nonzero;fill:rgb(29.019609%,29.019609%,29.019609%);fill-opacity:1;" d="M 387.753906 539.78125 L 390.976562 538.917969 C 391.511719 538.773438 392.058594 539.089844 392.203125 539.625 L 393.066406 542.847656 C 393.210938 543.378906 392.894531 543.929688 392.359375 544.070312 L 389.136719 544.933594 C 388.605469 545.078125 388.054688 544.761719 387.914062 544.226562 L 387.046875 541.007812 C 386.90625 540.472656 387.222656 539.925781 387.753906 539.78125 Z M 387.753906 539.78125 "/>
<path style=" stroke:none;fill-rule:nonzero;fill:rgb(29.019609%,29.019609%,29.019609%);fill-opacity:1;" d="M 393.863281 538.144531 L 397.085938 537.277344 C 397.621094 537.136719 398.167969 537.453125 398.3125 537.984375 L 399.175781 541.207031 C 399.316406 541.742188 399 542.289062 398.46875 542.433594 L 395.246094 543.296875 C 394.710938 543.441406 394.164062 543.125 394.019531 542.589844 L 393.15625 539.367188 C 393.011719 538.835938 393.328125 538.285156 393.863281 538.144531 Z M 393.863281 538.144531 "/>
<path style=" stroke:none;fill-rule:nonzero;fill:rgb(29.019609%,29.019609%,29.019609%);fill-opacity:1;" d="M 399.972656 536.503906 L 403.195312 535.640625 C 403.726562 535.5 404.277344 535.816406 404.421875 536.347656 L 405.285156 539.570312 C 405.425781 540.105469 405.109375 540.652344 404.578125 540.796875 L 401.355469 541.660156 C 400.820312 541.804688 400.273438 541.488281 400.128906 540.953125 L 399.265625 537.730469 C 399.121094 537.195312 399.4375 536.648438 399.972656 536.503906 Z M 399.972656 536.503906 "/>
<path style=" stroke:none;fill-rule:nonzero;fill:rgb(29.019609%,29.019609%,29.019609%);fill-opacity:1;" d="M 406.082031 534.867188 L 409.304688 534.003906 C 409.835938 533.859375 410.386719 534.175781 410.527344 534.710938 L 411.394531 537.933594 C 411.535156 538.464844 411.21875 539.015625 410.6875 539.15625 L 407.464844 540.023438 C 406.929688 540.164062 406.382812 539.847656 406.238281 539.316406 L 405.375 536.09375 C 405.230469 535.558594 405.546875 535.011719 406.082031 534.867188 Z M 406.082031 534.867188 "/>
<path style=" stroke:none;fill-rule:nonzero;fill:rgb(29.019609%,29.019609%,29.019609%);fill-opacity:1;" d="M 412.191406 533.230469 L 415.414062 532.367188 C 415.945312 532.222656 416.496094 532.539062 416.636719 533.074219 L 417.5 536.296875 C 417.644531 536.828125 417.328125 537.378906 416.796875 537.519531 L 413.574219 538.382812 C 413.039062 538.527344 412.492188 538.210938 412.347656 537.675781 L 411.484375 534.453125 C 411.339844 533.921875 411.65625 533.371094 412.191406 533.230469 Z M 412.191406 533.230469 "/>
<path style=" stroke:none;fill-rule:nonzero;fill:rgb(29.019609%,29.019609%,29.019609%);fill-opacity:1;" d="M 418.296875 531.59375 L 421.519531 530.726562 C 422.054688 530.585938 422.601562 530.902344 422.746094 531.433594 L 423.609375 534.65625 C 423.753906 535.191406 423.4375 535.738281 422.902344 535.882812 L 419.679688 536.746094 C 419.148438 536.890625 418.597656 536.574219 418.457031 536.039062 L 417.589844 532.816406 C 417.449219 532.285156 417.765625 531.734375 418.296875 531.59375 Z M 418.296875 531.59375 "/>
<path style=" stroke:none;fill-rule:nonzero;fill:rgb(29.019609%,29.019609%,29.019609%);fill-opacity:1;" d="M 424.40625 529.953125 L 427.628906 529.089844 C 428.164062 528.945312 428.710938 529.261719 428.855469 529.796875 L 429.71875 533.019531 C 429.859375 533.554688 429.542969 534.101562 429.011719 534.246094 L 425.789062 535.109375 C 425.253906 535.25 424.707031 534.933594 424.5625 534.402344 L 423.699219 531.179688 C 423.554688 530.644531 423.871094 530.097656 424.40625 529.953125 Z M 424.40625 529.953125 "/>
<path style=" stroke:none;fill-rule:nonzero;fill:rgb(29.019609%,29.019609%,29.019609%);fill-opacity:1;" d="M 430.515625 528.316406 L 433.738281 527.453125 C 434.269531 527.308594 434.820312 527.625 434.964844 528.160156 L 435.828125 531.382812 C 435.96875 531.914062 435.652344 532.464844 435.121094 532.605469 L 431.898438 533.472656 C 431.363281 533.613281 430.816406 533.296875 430.671875 532.765625 L 429.808594 529.542969 C 429.664062 529.007812 429.980469 528.460938 430.515625 528.316406 Z M 430.515625 528.316406 "/>
<path style=" stroke:none;fill-rule:nonzero;fill:rgb(29.019609%,29.019609%,29.019609%);fill-opacity:1;" d="M 436.625 526.679688 L 439.847656 525.816406 C 440.378906 525.671875 440.929688 525.988281 441.070312 526.523438 L 441.933594 529.746094 C 442.078125 530.277344 441.761719 530.824219 441.226562 530.96875 L 438.003906 531.832031 C 437.472656 531.976562 436.921875 531.660156 436.78125 531.125 L 435.917969 527.902344 C 435.773438 527.371094 436.089844 526.820312 436.625 526.679688 Z M 436.625 526.679688 "/>
<path style=" stroke:none;fill-rule:nonzero;fill:rgb(29.019609%,29.019609%,29.019609%);fill-opacity:1;" d="M 442.730469 525.039062 L 445.953125 524.175781 C 446.488281 524.035156 447.035156 524.351562 447.179688 524.882812 L 448.042969 528.105469 C 448.1875 528.640625 447.871094 529.1875 447.335938 529.332031 L 444.113281 530.195312 C 443.582031 530.339844 443.03125 530.023438 442.890625 529.488281 L 442.023438 526.265625 C 441.882812 525.730469 442.199219 525.183594 442.730469 525.039062 Z M 442.730469 525.039062 "/>
<path style=" stroke:none;fill-rule:evenodd;fill:rgb(29.019609%,29.019609%,29.019609%);fill-opacity:1;" d="M 449.121094 523.328125 L 455.792969 521.539062 C 456.375 521.382812 456.972656 521.730469 457.128906 522.3125 L 457.945312 525.355469 C 458.101562 525.9375 457.757812 526.535156 457.175781 526.691406 L 450.503906 528.480469 C 449.921875 528.636719 449.320312 528.292969 449.164062 527.710938 L 448.347656 524.667969 C 448.191406 524.085938 448.539062 523.484375 449.121094 523.328125 Z M 449.121094 523.328125 "/>
<path style=" stroke:none;fill-rule:nonzero;fill:rgb(29.019609%,29.019609%,29.019609%);fill-opacity:1;" d="M 374.714844 556.78125 L 377.9375 555.917969 C 378.472656 555.773438 379.019531 556.089844 379.164062 556.625 L 380.027344 559.847656 C 380.171875 560.382812 379.855469 560.929688 379.320312 561.074219 L 376.097656 561.9375 C 375.566406 562.078125 375.015625 561.761719 374.875 561.230469 L 374.007812 558.007812 C 373.867188 557.472656 374.183594 556.925781 374.714844 556.78125 Z M 374.714844 556.78125 "/>
<path style=" stroke:none;fill-rule:nonzero;fill:rgb(29.019609%,29.019609%,29.019609%);fill-opacity:1;" d="M 380.824219 555.144531 L 384.046875 554.28125 C 384.582031 554.136719 385.128906 554.453125 385.273438 554.988281 L 386.136719 558.210938 C 386.28125 558.742188 385.964844 559.292969 385.429688 559.433594 L 382.207031 560.296875 C 381.675781 560.441406 381.125 560.125 380.980469 559.59375 L 380.117188 556.371094 C 379.976562 555.835938 380.292969 555.289062 380.824219 555.144531 Z M 380.824219 555.144531 "/>
<path style=" stroke:none;fill-rule:nonzero;fill:rgb(29.019609%,29.019609%,29.019609%);fill-opacity:1;" d="M 386.933594 553.507812 L 390.15625 552.640625 C 390.6875 552.5 391.238281 552.816406 391.382812 553.347656 L 392.246094 556.570312 C 392.386719 557.105469 392.070312 557.652344 391.539062 557.796875 L 388.316406 558.660156 C 387.78125 558.804688 387.234375 558.488281 387.089844 557.953125 L 386.226562 554.730469 C 386.082031 554.199219 386.398438 553.648438 386.933594 553.507812 Z M 386.933594 553.507812 "/>
<path style=" stroke:none;fill-rule:nonzero;fill:rgb(29.019609%,29.019609%,29.019609%);fill-opacity:1;" d="M 393.042969 551.867188 L 396.265625 551.003906 C 396.796875 550.863281 397.347656 551.179688 397.488281 551.710938 L 398.355469 554.933594 C 398.496094 555.46875 398.179688 556.015625 397.648438 556.160156 L 394.425781 557.023438 C 393.890625 557.167969 393.34375 556.851562 393.199219 556.316406 L 392.335938 553.09375 C 392.191406 552.558594 392.507812 552.011719 393.042969 551.867188 Z M 393.042969 551.867188 "/>
<path style=" stroke:none;fill-rule:evenodd;fill:rgb(29.019609%,29.019609%,29.019609%);fill-opacity:1;" d="M 399.238281 550.207031 L 428.628906 542.328125 C 429.210938 542.171875 429.808594 542.515625 429.964844 543.101562 L 430.78125 546.144531 C 430.9375 546.726562 430.59375 547.328125 430.011719 547.484375 L 400.621094 555.363281 C 400.039062 555.519531 399.441406 555.171875 399.285156 554.589844 L 398.46875 551.546875 C 398.3125 550.960938 398.65625 550.363281 399.238281 550.207031 Z M 431.691406 541.507812 L 435.5 540.484375 C 436.082031 540.328125 436.683594 540.675781 436.839844 541.257812 L 437.65625 544.300781 C 437.8125 544.886719 437.464844 545.484375 436.882812 545.640625 L 433.074219 546.660156 C 432.492188 546.816406 431.890625 546.472656 431.734375 545.890625 L 430.917969 542.84375 C 430.761719 542.261719 431.109375 541.664062 431.691406 541.507812 Z M 431.691406 541.507812 "/>
<path style=" stroke:none;fill-rule:nonzero;fill:rgb(29.019609%,29.019609%,29.019609%);fill-opacity:1;" d="M 438.476562 539.6875 L 441.699219 538.824219 C 442.230469 538.679688 442.78125 538.996094 442.921875 539.53125 L 443.785156 542.753906 C 443.929688 543.285156 443.613281 543.835938 443.078125 543.976562 L 439.855469 544.84375 C 439.324219 544.984375 438.773438 544.667969 438.632812 544.136719 L 437.769531 540.914062 C 437.625 540.378906 437.941406 539.832031 438.476562 539.6875 Z M 438.476562 539.6875 "/>
<path style=" stroke:none;fill-rule:nonzero;fill:rgb(29.019609%,29.019609%,29.019609%);fill-opacity:1;" d="M 444.585938 538.050781 L 447.808594 537.183594 C 448.339844 537.042969 448.890625 537.359375 449.03125 537.890625 L 449.894531 541.113281 C 450.039062 541.648438 449.722656 542.195312 449.1875 542.339844 L 445.964844 543.203125 C 445.433594 543.347656 444.882812 543.03125 444.742188 542.496094 L 443.878906 539.273438 C 443.734375 538.742188 444.050781 538.191406 444.585938 538.050781 Z M 444.585938 538.050781 "/>
<path style=" stroke:none;fill-rule:nonzero;fill:rgb(29.019609%,29.019609%,29.019609%);fill-opacity:1;" d="M 456.039062 534.980469 L 459.257812 534.113281 C 459.792969 533.972656 460.339844 534.289062 460.484375 534.820312 L 461.347656 538.042969 C 461.492188 538.578125 461.175781 539.125 460.640625 539.269531 L 457.417969 540.132812 C 456.886719 540.277344 456.335938 539.960938 456.195312 539.425781 L 455.332031 536.203125 C 455.1875 535.671875 455.503906 535.121094 456.039062 534.980469 Z M 456.039062 534.980469 "/>
<path style=" stroke:none;fill-rule:nonzero;fill:rgb(29.019609%,29.019609%,29.019609%);fill-opacity:1;" d="M 449.933594 538.96875 L 449.625 537.828125 C 449.46875 537.246094 449.816406 536.648438 450.398438 536.492188 L 453.441406 535.675781 C 454.027344 535.519531 454.625 535.863281 454.78125 536.445312 L 455.085938 537.585938 Z M 449.933594 538.96875 "/>
<path style=" stroke:none;fill-rule:nonzero;fill:rgb(29.019609%,29.019609%,29.019609%);fill-opacity:1;" d="M 455.292969 538.351562 L 455.597656 539.488281 C 455.753906 540.074219 455.410156 540.671875 454.824219 540.828125 L 451.78125 541.644531 C 451.199219 541.800781 450.601562 541.453125 450.445312 540.871094 L 450.136719 539.730469 Z M 455.292969 538.351562 "/>
<path style=" stroke:none;fill-rule:nonzero;fill:rgb(29.019609%,29.019609%,29.019609%);fill-opacity:1;" d="M 367.808594 529.167969 L 451.617188 506.699219 C 452.195312 506.542969 452.789062 506.886719 452.945312 507.464844 L 452.996094 507.660156 C 453.152344 508.238281 452.808594 508.832031 452.230469 508.988281 L 368.421875 531.460938 C 367.84375 531.613281 367.25 531.269531 367.09375 530.691406 L 367.042969 530.496094 C 366.886719 529.917969 367.230469 529.324219 367.808594 529.167969 Z M 367.808594 529.167969 "/>
<use xlink:href="#surface910" mask="url(#mask12)"/>
<use xlink:href="#surface918" mask="url(#mask13)"/>
<use xlink:href="#surface926" mask="url(#mask14)"/>
<use xlink:href="#surface938" mask="url(#mask15)"/>
<use xlink:href="#surface946" mask="url(#mask16)"/>
<use xlink:href="#surface955" mask="url(#mask17)"/>
<use xlink:href="#surface964" mask="url(#mask18)"/>
<use xlink:href="#surface970" mask="url(#mask19)"/>
<use xlink:href="#surface980" mask="url(#mask20)"/>
<use xlink:href="#surface985" mask="url(#mask21)"/>
<use xlink:href="#surface990" mask="url(#mask22)"/>
<use xlink:href="#surface995" mask="url(#mask23)"/>
<use xlink:href="#surface999" mask="url(#mask24)"/>
<use xlink:href="#surface1004" mask="url(#mask25)"/>
<use xlink:href="#surface1008" mask="url(#mask26)"/>
<path style=" stroke:none;fill-rule:evenodd;fill:rgb(26.666668%,84.705883%,37.64706%);fill-opacity:1;" d="M 408.257812 591.5625 C 408.019531 591.570312 407.789062 591.59375 407.554688 591.632812 C 407.515625 591.46875 407.476562 591.304688 407.429688 591.140625 C 409.394531 590.335938 410.714844 588.460938 410.8125 586.339844 C 410.90625 584.214844 409.765625 582.230469 407.878906 581.25 C 405.996094 580.269531 403.710938 580.472656 402.027344 581.769531 C 401.910156 581.644531 401.785156 581.523438 401.664062 581.402344 C 402.929688 579.714844 403.109375 577.453125 402.128906 575.585938 C 401.148438 573.71875 399.179688 572.585938 397.074219 572.675781 C 394.964844 572.765625 393.101562 574.058594 392.277344 576 C 392.117188 575.953125 391.953125 575.917969 391.792969 575.875 C 392.144531 573.734375 391.203125 571.589844 389.386719 570.40625 C 387.570312 569.222656 385.226562 569.222656 383.410156 570.40625 C 381.597656 571.589844 380.652344 573.734375 381.003906 575.875 C 380.84375 575.917969 380.679688 575.953125 380.519531 576 C 379.703125 574.050781 377.835938 572.746094 375.722656 572.652344 C 373.609375 572.558594 371.632812 573.699219 370.652344 575.570312 C 369.667969 577.445312 369.855469 579.714844 371.136719 581.402344 C 364.511719 587.859375 362.679688 597.789062 366.554688 606.1875 C 370.429688 614.585938 379.175781 619.636719 388.386719 618.789062 C 397.597656 617.941406 405.277344 611.386719 407.554688 602.421875 C 409.570312 602.683594 411.566406 601.804688 412.730469 600.136719 C 413.894531 598.472656 414.035156 596.292969 413.097656 594.492188 C 412.15625 592.691406 410.289062 591.558594 408.257812 591.5625 "/>
<path style=" stroke:none;fill-rule:evenodd;fill:rgb(24.313726%,80.000001%,37.254903%);fill-opacity:1;" d="M 342.691406 553.316406 L 386.402344 553.316406 L 386.402344 531.460938 L 342.691406 531.460938 Z M 342.691406 553.316406 "/>
<path style=" stroke:none;fill-rule:evenodd;fill:rgb(26.666668%,84.705883%,37.64706%);fill-opacity:1;" d="M 397.328125 545.121094 C 398.835938 545.121094 400.058594 543.898438 400.058594 542.390625 C 400.058594 540.878906 398.835938 539.65625 397.328125 539.65625 C 397.210938 539.660156 397.09375 539.671875 396.980469 539.691406 C 396.957031 539.609375 396.9375 539.527344 396.914062 539.445312 C 398.113281 538.941406 398.792969 537.664062 398.539062 536.390625 C 398.28125 535.113281 397.164062 534.195312 395.863281 534.191406 C 395.265625 534.195312 394.6875 534.394531 394.214844 534.757812 C 394.15625 534.695312 394.09375 534.636719 394.03125 534.574219 C 394.390625 534.105469 394.585938 533.53125 394.585938 532.941406 C 394.585938 531.644531 393.671875 530.527344 392.398438 530.265625 C 391.128906 530.007812 389.847656 530.679688 389.339844 531.871094 C 384.882812 530.613281 380.117188 532.296875 377.441406 536.078125 C 374.769531 539.859375 374.769531 544.914062 377.441406 548.695312 C 380.117188 552.476562 384.882812 554.164062 389.339844 552.902344 C 389.847656 554.097656 391.128906 554.765625 392.398438 554.507812 C 393.671875 554.25 394.585938 553.128906 394.585938 551.832031 C 394.585938 551.242188 394.390625 550.667969 394.03125 550.199219 C 394.09375 550.140625 394.15625 550.078125 394.214844 550.015625 C 394.6875 550.382812 395.265625 550.582031 395.863281 550.582031 C 397.164062 550.582031 398.285156 549.664062 398.542969 548.386719 C 398.796875 547.109375 398.117188 545.832031 396.914062 545.328125 C 396.9375 545.246094 396.957031 545.164062 396.980469 545.082031 C 397.09375 545.101562 397.210938 545.113281 397.328125 545.117188 "/>
<path style=" stroke:none;fill-rule:evenodd;fill:rgb(0%,0%,0%);fill-opacity:1;" d="M 408.257812 464.53125 C 408.078125 464.527344 407.898438 464.511719 407.722656 464.476562 C 407.546875 464.441406 407.371094 464.390625 407.207031 464.324219 C 407.042969 464.253906 406.882812 464.171875 406.734375 464.070312 C 406.589844 463.96875 406.453125 463.855469 406.320312 463.734375 C 406.195312 463.605469 406.082031 463.464844 405.984375 463.316406 C 405.683594 462.871094 405.523438 462.339844 405.523438 461.800781 C 405.527344 461.621094 405.542969 461.441406 405.578125 461.265625 C 405.613281 461.089844 405.664062 460.917969 405.730469 460.753906 C 405.800781 460.585938 405.882812 460.429688 405.984375 460.28125 C 406.179688 459.980469 406.4375 459.726562 406.734375 459.527344 C 406.882812 459.429688 407.042969 459.34375 407.207031 459.277344 C 407.371094 459.210938 407.546875 459.15625 407.722656 459.125 C 408.074219 459.046875 408.4375 459.046875 408.792969 459.125 C 409.144531 459.191406 409.476562 459.324219 409.773438 459.523438 C 409.921875 459.628906 410.058594 459.742188 410.191406 459.863281 C 410.3125 459.992188 410.425781 460.132812 410.527344 460.277344 C 410.628906 460.425781 410.710938 460.582031 410.78125 460.746094 C 410.914062 461.082031 410.984375 461.4375 410.988281 461.796875 C 410.984375 462.519531 410.699219 463.214844 410.1875 463.730469 C 410.058594 463.851562 409.917969 463.964844 409.773438 464.070312 C 409.324219 464.371094 408.792969 464.53125 408.253906 464.527344 M 430.109375 463.164062 C 429.382812 463.15625 428.691406 462.871094 428.175781 462.363281 C 428.050781 462.230469 427.941406 462.09375 427.835938 461.949219 C 427.535156 461.5 427.375 460.96875 427.378906 460.429688 C 427.382812 459.703125 427.667969 459.011719 428.175781 458.496094 C 428.308594 458.375 428.445312 458.261719 428.59375 458.15625 C 428.742188 458.058594 428.898438 457.972656 429.0625 457.90625 C 429.230469 457.835938 429.402344 457.785156 429.578125 457.753906 C 429.929688 457.675781 430.296875 457.675781 430.648438 457.753906 C 431 457.816406 431.332031 457.953125 431.632812 458.152344 C 431.777344 458.257812 431.914062 458.371094 432.046875 458.492188 C 432.554688 459.007812 432.839844 459.699219 432.847656 460.425781 C 432.84375 460.605469 432.824219 460.785156 432.789062 460.960938 C 432.757812 461.136719 432.707031 461.308594 432.636719 461.472656 C 432.566406 461.636719 432.480469 461.792969 432.386719 461.945312 C 432.285156 462.089844 432.171875 462.226562 432.046875 462.359375 C 431.917969 462.480469 431.777344 462.59375 431.632812 462.699219 C 431.183594 463 430.65625 463.160156 430.113281 463.15625 "/>
</g>
</svg>
