<?xml version="1.0" encoding="UTF-8"?>
<svg xmlns="http://www.w3.org/2000/svg" xmlns:xlink="http://www.w3.org/1999/xlink" width="200pt" height="200pt" viewBox="0 0 200 200" version="1.1">
<g id="surface462">
<path style=" stroke:none;fill-rule:evenodd;fill:rgb(100%,100%,100%);fill-opacity:1;" d="M 99 52 L 183 52 L 183 86 L 99 86 Z M 99 52 "/>
<path style=" stroke:none;fill-rule:evenodd;fill:rgb(24.313726%,80.000001%,37.254903%);fill-opacity:1;" d="M 23 163 C 15.601562 163 9.15625 158.972656 5.695312 153 C 3.929688 156.035156 3 159.488281 3 163 C 3 174.046875 11.953125 183 23 183 L 43 183 L 43 163 Z M 23 163 "/>
<path style=" stroke:none;fill-rule:evenodd;fill:rgb(24.313726%,80.000001%,37.254903%);fill-opacity:1;" d="M 112.980469 57.375 L 183 53 L 183 43 C 183 31.953125 174.046875 23 163 23 L 73 23 L 70.5 18.671875 C 69.386719 16.746094 66.609375 16.746094 65.5 18.671875 L 63 23 L 60.5 18.671875 C 59.390625 16.746094 56.609375 16.746094 55.5 18.671875 L 53 23 L 50.5 18.671875 C 49.390625 16.746094 46.609375 16.746094 45.5 18.671875 L 43 23 C 42.976562 23 42.957031 23.003906 42.933594 23.003906 L 38.792969 18.863281 C 37.222656 17.289062 34.539062 18.007812 33.964844 20.15625 L 32.597656 25.261719 L 27.402344 23.867188 C 25.257812 23.292969 23.292969 25.257812 23.867188 27.402344 L 25.257812 32.597656 L 20.15625 33.964844 C 18.007812 34.539062 17.289062 37.222656 18.859375 38.792969 L 23.003906 42.9375 C 23.003906 42.957031 23 42.976562 23 43 L 18.671875 45.5 C 16.746094 46.609375 16.746094 49.390625 18.671875 50.5 L 23 53 L 18.671875 55.5 C 16.746094 56.609375 16.746094 59.390625 18.671875 60.5 L 23 63 L 18.671875 65.5 C 16.746094 66.609375 16.746094 69.390625 18.671875 70.5 L 23 73 L 18.671875 75.5 C 16.746094 76.609375 16.746094 79.390625 18.671875 80.5 L 23 83 L 18.671875 85.5 C 16.746094 86.609375 16.746094 89.390625 18.671875 90.5 L 23 93 L 18.671875 95.5 C 16.746094 96.609375 16.746094 99.390625 18.671875 100.5 L 23 103 L 18.671875 105.5 C 16.746094 106.609375 16.746094 109.390625 18.671875 110.5 L 23 113 L 18.671875 115.5 C 16.746094 116.609375 16.746094 119.390625 18.671875 120.5 L 23 123 L 18.671875 125.5 C 16.746094 126.609375 16.746094 129.390625 18.671875 130.5 L 23 133 L 18.671875 135.5 C 16.746094 136.609375 16.746094 139.390625 18.671875 140.5 L 23 143 L 18.671875 145.5 C 16.746094 146.609375 16.746094 149.390625 18.671875 150.5 L 23 153 L 18.671875 155.5 C 16.746094 156.609375 16.746094 159.390625 18.671875 160.5 L 23 163 C 23 174.046875 31.953125 183 43 183 L 163 183 C 174.046875 183 183 174.046875 183 163 L 183 83 L 112.980469 78.625 C 107.371094 78.273438 103 73.621094 103 68 C 103 62.378906 107.371094 57.726562 112.980469 57.375 "/>
<path style=" stroke:none;fill-rule:evenodd;fill:rgb(24.313726%,80.000001%,37.254903%);fill-opacity:1;" d="M 143 183 L 173 183 L 173 143 L 143 143 Z M 143 183 "/>
<path style=" stroke:none;fill-rule:evenodd;fill:rgb(26.666668%,84.705883%,37.64706%);fill-opacity:1;" d="M 193 158 C 192.78125 158 192.570312 158.035156 192.359375 158.0625 C 192.324219 157.914062 192.285156 157.761719 192.246094 157.613281 C 194.441406 156.695312 195.6875 154.351562 195.21875 152.019531 C 194.75 149.683594 192.703125 148 190.320312 148 C 189.226562 148.003906 188.167969 148.367188 187.304688 149.035156 C 187.191406 148.921875 187.082031 148.8125 186.96875 148.699219 C 187.621094 147.839844 187.976562 146.792969 187.980469 145.714844 C 187.980469 143.339844 186.308594 141.292969 183.980469 140.816406 C 181.652344 140.34375 179.3125 141.570312 178.382812 143.753906 C 178.234375 143.710938 178.085938 143.675781 177.9375 143.640625 C 177.964844 143.429688 178 143.21875 178 143 C 178 140.238281 175.761719 138 173 138 C 170.238281 138 168 140.238281 168 143 C 168 143.21875 168.035156 143.429688 168.0625 143.640625 C 167.914062 143.675781 167.765625 143.710938 167.617188 143.753906 C 166.691406 141.566406 164.347656 140.332031 162.019531 140.808594 C 159.6875 141.285156 158.015625 143.335938 158.019531 145.714844 C 158.019531 146.839844 158.402344 147.863281 159.03125 148.699219 C 155.3125 152.332031 153 157.394531 153 163 C 153 174.046875 161.953125 183 173 183 C 182.339844 183 190.160156 176.589844 192.359375 167.9375 C 192.570312 167.964844 192.78125 168 193 168 C 195.761719 168 198 165.761719 198 163 C 198 160.238281 195.761719 158 193 158 "/>
<path style=" stroke:none;fill-rule:evenodd;fill:rgb(24.313726%,80.000001%,37.254903%);fill-opacity:1;" d="M 153 123 L 183 123 L 183 103 L 153 103 Z M 153 123 "/>
<path style=" stroke:none;fill-rule:evenodd;fill:rgb(26.666668%,84.705883%,37.64706%);fill-opacity:1;" d="M 193 115.5 C 194.378906 115.5 195.5 114.378906 195.5 113 C 195.5 111.621094 194.378906 110.5 193 110.5 C 192.890625 110.5 192.785156 110.519531 192.679688 110.53125 C 192.660156 110.457031 192.644531 110.382812 192.621094 110.308594 C 193.71875 109.847656 194.339844 108.675781 194.105469 107.507812 C 193.875 106.34375 192.851562 105.503906 191.660156 105.5 C 191.089844 105.5 190.570312 105.695312 190.152344 106.019531 C 190.097656 105.960938 190.039062 105.90625 189.984375 105.851562 C 190.296875 105.433594 190.488281 104.917969 190.488281 104.355469 C 190.488281 103.167969 189.652344 102.144531 188.488281 101.90625 C 187.324219 101.667969 186.15625 102.285156 185.691406 103.378906 C 184.816406 103.128906 183.910156 103.003906 183 103 C 177.476562 103 173 107.476562 173 113 C 173 118.523438 177.476562 123 183 123 C 183.933594 123 184.832031 122.863281 185.691406 122.621094 C 186.15625 123.714844 187.324219 124.332031 188.488281 124.09375 C 189.652344 123.855469 190.488281 122.832031 190.488281 121.644531 C 190.488281 121.082031 190.296875 120.566406 189.984375 120.148438 C 190.039062 120.09375 190.097656 120.039062 190.152344 119.980469 C 190.570312 120.304688 191.089844 120.5 191.660156 120.5 C 192.851562 120.5 193.878906 119.660156 194.109375 118.492188 C 194.34375 117.324219 193.722656 116.152344 192.621094 115.691406 C 192.644531 115.617188 192.660156 115.542969 192.679688 115.46875 C 192.785156 115.480469 192.890625 115.5 193 115.5 "/>
<path style=" stroke:none;fill-rule:evenodd;fill:rgb(0%,0%,0%);fill-opacity:1;" d="M 63 55.5 C 61.621094 55.5 60.5 54.378906 60.5 53 C 60.5 48.863281 57.136719 45.5 53 45.5 C 48.863281 45.5 45.5 48.863281 45.5 53 C 45.5 54.378906 44.378906 55.5 43 55.5 C 41.621094 55.5 40.5 54.378906 40.5 53 C 40.5 46.105469 46.105469 40.5 53 40.5 C 59.894531 40.5 65.5 46.105469 65.5 53 C 65.5 54.378906 64.378906 55.5 63 55.5 "/>
<path style=" stroke:none;fill-rule:evenodd;fill:rgb(100%,100%,31.37255%);fill-opacity:1;" d="M 103 183 L 163 183 C 174.046875 183 183 174.046875 183 163 L 183 93 L 123 93 C 111.953125 93 103 101.953125 103 113 Z M 103 183 "/>
<path style=" stroke:none;fill-rule:evenodd;fill:rgb(0%,0%,0%);fill-opacity:1;" d="M 168.019531 124 L 117.980469 124 C 117.425781 124 116.980469 123.550781 116.980469 123 C 116.980469 122.449219 117.425781 122 117.980469 122 L 168.019531 122 C 168.574219 122 169.019531 122.449219 169.019531 123 C 169.019531 123.550781 168.574219 124 168.019531 124 M 168.019531 144 L 117.980469 144 C 117.425781 144 116.980469 143.550781 116.980469 143 C 116.980469 142.449219 117.425781 142 117.980469 142 L 168.019531 142 C 168.574219 142 169.019531 142.449219 169.019531 143 C 169.019531 143.550781 168.574219 144 168.019531 144 M 168.019531 164 L 117.980469 164 C 117.425781 164 116.980469 163.550781 116.980469 163 C 116.980469 162.449219 117.425781 162 117.980469 162 L 168.019531 162 C 168.574219 162 169.019531 162.449219 169.019531 163 C 169.019531 163.550781 168.574219 164 168.019531 164 M 168.019531 114.1875 L 117.980469 114.1875 C 117.425781 114.1875 116.980469 113.738281 116.980469 113.1875 C 116.980469 112.632812 117.425781 112.1875 117.980469 112.1875 L 168.019531 112.1875 C 168.574219 112.1875 169.019531 112.632812 169.019531 113.1875 C 169.019531 113.738281 168.574219 114.1875 168.019531 114.1875 M 168.019531 134 L 117.980469 134 C 117.425781 134 116.980469 133.550781 116.980469 133 C 116.980469 132.449219 117.425781 132 117.980469 132 L 168.019531 132 C 168.574219 132 169.019531 132.449219 169.019531 133 C 169.019531 133.550781 168.574219 134 168.019531 134 M 168.019531 154 L 117.980469 154 C 117.425781 154 116.980469 153.550781 116.980469 153 C 116.980469 152.449219 117.425781 152 117.980469 152 L 168.019531 152 C 168.574219 152 169.019531 152.449219 169.019531 153 C 169.019531 153.550781 168.574219 154 168.019531 154 M 183 61.609375 C 182.988281 61.609375 182.976562 61.605469 182.964844 61.605469 C 179.875 61.710938 178.414062 64.800781 177.125 67.527344 C 175.777344 70.378906 174.738281 72.230469 173.03125 72.175781 C 171.140625 72.109375 170.0625 69.972656 168.917969 67.714844 C 167.605469 65.121094 166.105469 62.179688 162.953125 62.289062 C 159.910156 62.394531 158.441406 65.085938 157.148438 67.457031 C 155.769531 69.984375 154.835938 71.523438 153.027344 71.449219 C 151.101562 71.382812 150.074219 69.644531 148.890625 67.636719 C 147.570312 65.402344 146.042969 62.886719 142.953125 62.972656 C 139.960938 63.078125 138.488281 65.359375 137.191406 67.375 C 135.820312 69.503906 134.855469 70.800781 133.027344 70.726562 C 131.054688 70.65625 130.035156 69.214844 128.855469 67.546875 C 127.53125 65.675781 126.039062 63.554688 122.960938 63.65625 C 120.03125 63.757812 118.5625 65.628906 117.265625 67.277344 C 116.03125 68.839844 115.070312 70.078125 113.035156 70 C 112.484375 69.980469 112.019531 70.410156 112 70.964844 C 111.980469 71.515625 112.410156 71.980469 112.964844 72 C 115.980469 72.101562 117.507812 70.199219 118.835938 68.511719 C 120.011719 67.015625 121.027344 65.726562 123.027344 65.65625 C 124.953125 65.574219 125.859375 66.773438 127.222656 68.703125 C 128.519531 70.535156 129.992188 72.617188 132.953125 72.722656 C 136.058594 72.828125 137.550781 70.507812 138.871094 68.457031 C 140.054688 66.621094 141.074219 65.039062 143.023438 64.972656 C 144.816406 64.90625 145.792969 66.324219 147.167969 68.652344 C 148.464844 70.851562 149.933594 73.339844 152.953125 73.449219 C 156.078125 73.558594 157.589844 70.828125 158.902344 68.414062 C 160.042969 66.328125 161.117188 64.355469 163.023438 64.289062 C 164.816406 64.246094 165.75 65.882812 167.132812 68.617188 C 168.425781 71.171875 169.890625 74.0625 172.960938 74.175781 L 173.128906 74.179688 C 176.191406 74.179688 177.644531 71.101562 178.933594 68.382812 C 180.070312 65.972656 181.148438 63.703125 183 63.609375 Z M 183 61.609375 "/>
<path style=" stroke:none;fill-rule:evenodd;fill:rgb(24.313726%,80.000001%,37.254903%);fill-opacity:1;" d="M 83 183 L 123 183 L 123 143 L 83 143 Z M 83 183 "/>
<path style=" stroke:none;fill-rule:evenodd;fill:rgb(26.666668%,84.705883%,37.64706%);fill-opacity:1;" d="M 143 158 C 142.78125 158 142.570312 158.035156 142.359375 158.0625 C 142.324219 157.914062 142.285156 157.761719 142.246094 157.613281 C 144.441406 156.695312 145.6875 154.351562 145.21875 152.019531 C 144.75 149.683594 142.703125 148 140.320312 148 C 139.226562 148.003906 138.167969 148.367188 137.304688 149.035156 C 137.191406 148.921875 137.082031 148.8125 136.96875 148.699219 C 137.621094 147.839844 137.976562 146.792969 137.980469 145.714844 C 137.980469 143.339844 136.308594 141.292969 133.980469 140.816406 C 131.652344 140.34375 129.3125 141.570312 128.382812 143.753906 C 128.234375 143.710938 128.085938 143.675781 127.9375 143.640625 C 127.964844 143.429688 128 143.21875 128 143 C 128 140.238281 125.761719 138 123 138 C 120.238281 138 118 140.238281 118 143 C 118 143.21875 118.035156 143.429688 118.0625 143.640625 C 117.914062 143.675781 117.765625 143.710938 117.617188 143.753906 C 116.691406 141.566406 114.347656 140.332031 112.019531 140.808594 C 109.6875 141.285156 108.015625 143.335938 108.019531 145.714844 C 108.019531 146.839844 108.402344 147.863281 109.03125 148.699219 C 105.3125 152.332031 103 157.394531 103 163 C 103 174.046875 111.953125 183 123 183 C 132.339844 183 140.160156 176.589844 142.359375 167.9375 C 142.570312 167.964844 142.78125 168 143 168 C 145.761719 168 148 165.761719 148 163 C 148 160.238281 145.761719 158 143 158 "/>
<path style=" stroke:none;fill-rule:evenodd;fill:rgb(24.313726%,80.000001%,37.254903%);fill-opacity:1;" d="M 83 123 L 123 123 L 123 103 L 83 103 Z M 83 123 "/>
<path style=" stroke:none;fill-rule:evenodd;fill:rgb(26.666668%,84.705883%,37.64706%);fill-opacity:1;" d="M 133 115.5 C 134.378906 115.5 135.5 114.378906 135.5 113 C 135.5 111.621094 134.378906 110.5 133 110.5 C 132.890625 110.5 132.785156 110.519531 132.679688 110.53125 C 132.660156 110.457031 132.644531 110.382812 132.621094 110.308594 C 133.71875 109.847656 134.339844 108.675781 134.105469 107.507812 C 133.875 106.34375 132.851562 105.503906 131.660156 105.5 C 131.089844 105.5 130.570312 105.695312 130.152344 106.019531 C 130.097656 105.960938 130.039062 105.90625 129.984375 105.851562 C 130.296875 105.433594 130.488281 104.917969 130.488281 104.355469 C 130.488281 103.167969 129.652344 102.144531 128.488281 101.90625 C 127.324219 101.667969 126.15625 102.285156 125.691406 103.378906 C 124.816406 103.128906 123.910156 103.003906 123 103 C 117.476562 103 113 107.476562 113 113 C 113 118.523438 117.476562 123 123 123 C 123.933594 123 124.832031 122.863281 125.691406 122.621094 C 126.15625 123.714844 127.324219 124.332031 128.488281 124.09375 C 129.652344 123.855469 130.488281 122.832031 130.488281 121.644531 C 130.488281 121.082031 130.296875 120.566406 129.984375 120.148438 C 130.039062 120.09375 130.097656 120.039062 130.152344 119.980469 C 130.570312 120.304688 131.089844 120.5 131.660156 120.5 C 132.851562 120.5 133.878906 119.660156 134.109375 118.492188 C 134.34375 117.324219 133.722656 116.152344 132.621094 115.691406 C 132.644531 115.617188 132.660156 115.542969 132.679688 115.46875 C 132.785156 115.480469 132.890625 115.5 133 115.5 "/>
<path style=" stroke:none;fill-rule:evenodd;fill:rgb(0%,0%,0%);fill-opacity:1;" d="M 143 41.75 C 142.839844 41.75 142.671875 41.730469 142.511719 41.699219 C 142.347656 41.667969 142.191406 41.621094 142.039062 41.558594 C 141.890625 41.5 141.75 41.421875 141.609375 41.328125 C 141.480469 41.238281 141.351562 41.128906 141.230469 41.019531 C 141.121094 40.898438 141.011719 40.78125 140.921875 40.640625 C 140.828125 40.5 140.75 40.359375 140.6875 40.210938 C 140.566406 39.90625 140.503906 39.578125 140.5 39.25 C 140.5 39.089844 140.519531 38.921875 140.550781 38.761719 C 140.578125 38.601562 140.628906 38.449219 140.6875 38.289062 C 140.75 38.140625 140.828125 38 140.921875 37.859375 C 141.011719 37.730469 141.121094 37.601562 141.230469 37.480469 C 141.351562 37.371094 141.480469 37.261719 141.609375 37.171875 C 141.75 37.078125 141.890625 37 142.039062 36.941406 C 142.1875 36.878906 142.351562 36.828125 142.511719 36.800781 C 142.828125 36.730469 143.160156 36.730469 143.488281 36.800781 C 143.648438 36.828125 143.808594 36.878906 143.960938 36.941406 C 144.109375 37 144.25 37.078125 144.390625 37.171875 C 144.519531 37.261719 144.648438 37.371094 144.769531 37.480469 C 144.878906 37.601562 144.988281 37.730469 145.078125 37.859375 C 145.171875 38 145.25 38.140625 145.308594 38.289062 C 145.371094 38.449219 145.421875 38.601562 145.449219 38.761719 C 145.480469 38.921875 145.5 39.089844 145.5 39.25 C 145.5 39.910156 145.230469 40.558594 144.769531 41.019531 C 144.648438 41.128906 144.519531 41.238281 144.390625 41.328125 C 144.25 41.421875 144.109375 41.5 143.960938 41.558594 C 143.65625 41.683594 143.328125 41.75 143 41.75 M 163 40.5 C 162.339844 40.5 161.699219 40.230469 161.230469 39.769531 C 161.117188 39.648438 161.015625 39.523438 160.921875 39.390625 C 160.828125 39.25 160.75 39.109375 160.6875 38.960938 C 160.566406 38.65625 160.503906 38.328125 160.5 38 C 160.5 37.339844 160.769531 36.699219 161.230469 36.230469 C 161.351562 36.121094 161.480469 36.011719 161.609375 35.921875 C 161.75 35.828125 161.890625 35.75 162.039062 35.691406 C 162.1875 35.628906 162.351562 35.578125 162.511719 35.550781 C 162.828125 35.480469 163.171875 35.480469 163.488281 35.550781 C 163.648438 35.578125 163.808594 35.628906 163.960938 35.691406 C 164.109375 35.75 164.25 35.828125 164.390625 35.921875 C 164.519531 36.011719 164.648438 36.121094 164.769531 36.230469 C 165.230469 36.699219 165.5 37.339844 165.5 38 C 165.5 38.160156 165.480469 38.328125 165.449219 38.488281 C 165.421875 38.648438 165.371094 38.808594 165.308594 38.960938 C 165.238281 39.109375 165.171875 39.25 165.078125 39.390625 C 164.988281 39.519531 164.878906 39.648438 164.769531 39.769531 C 164.648438 39.878906 164.519531 39.988281 164.390625 40.078125 C 164.25 40.171875 164.109375 40.25 163.960938 40.308594 C 163.65625 40.433594 163.328125 40.5 163 40.5 "/>
</g>
</svg>
